<?xml version="1.0" encoding="utf-8"?>
<!-- Generator: Adobe Illustrator 19.2.0, SVG Export Plug-In . SVG Version: 6.00 Build 0)  -->
<svg version="1.1" id="Слой_1" xmlns="http://www.w3.org/2000/svg" xmlns:xlink="http://www.w3.org/1999/xlink" x="0px" y="0px"
	 viewBox="0 0 124.5 22.1" style="enable-background:new 0 0 124.5 22.1;" xml:space="preserve">
<style type="text/css">
	.st0{fill:none;}
	.st1{fill:#82939F;}
</style>
<path class="st0" d="M-33.8-15.8h192v53.3h-192V-15.8z"/>
<path class="st1" d="M0,0h10.5c2.6,0,4.8,1.9,5.3,4.4c0.6,2.5-0.8,5.1-3.2,5.9c-0.1,0-0.1,0.1-0.2,0.1c2,0.5,3.6,2.2,3.8,4.2
	c0.6,3.5-1.3,6.4-5,6.9c-0.8,0.1-1.6,0.1-2.5,0.1H0.1C0,14.4,0,7.2,0,0z M4.7,17.5c0.1,0,0.1,0,0.2,0.1c1.5,0,2.9,0,4.3,0
	c1.3,0,2.4-1.1,2.4-2.5c0-1.2-1-2.3-2.2-2.4c-0.9-0.1-1.9-0.1-2.8-0.1H4.7L4.7,17.5z M4.7,8.6h3.9c0.2,0,0.5,0,0.7,0
	c0.9-0.1,1.6-0.7,1.8-1.6c0.4-1.2-0.3-2.4-1.5-2.8C9.4,4.1,9.2,4.1,9,4.1c-0.7,0-1.5,0-2.2,0H4.7v0.4C4.6,5.8,4.6,7.1,4.7,8.6
	L4.7,8.6z M83.6,22c-0.6-0.1-1.1-0.2-1.6-0.3c-4-0.9-6.6-4.7-6-8.7c0.1-3.2,2.2-6,5.3-7c4.5-1.6,9.8,0.6,10.5,6.6
	c0.1,0.8,0.1,1.6,0.2,2.5H80.1c0.2,1.4,1,2.6,2.3,3.1c2,0.8,4.3,0.5,6-0.8l0.3-0.2h0.1l1.8,2.7c-0.6,0.4-1.2,0.8-1.8,1.1
	c-1.1,0.6-2.3,0.9-3.6,1c-0.1,0-0.3,0.1-0.4,0.1L83.6,22z M87.8,12.2c0.1-1.9-1.8-3.4-4.1-3.3c-1.9,0.1-3.7,1.7-3.5,3.3H87.8z
	 M100.3,22c-0.7-0.1-1.4-0.2-2-0.4c-3.1-0.8-5.4-3.6-5.6-6.8c-0.4-2.9,0.7-5.8,3-7.6c3.7-2.9,11.1-2.3,12.6,4.7
	c0.1,0.5,0.2,1,0.2,1.5v1.7H96.9c0.1,0.8,0.4,1.6,1,2.2c1.2,1.2,3,1.7,4.6,1.3c1.1-0.2,2.1-0.7,3-1.4l1.9,2.7
	c-0.5,0.3-0.9,0.7-1.4,0.9c-1.2,0.6-2.5,1-3.9,1.1c-0.2,0-0.3,0.1-0.5,0.1L100.3,22z M97,12.2h7.6c0.1-1.9-1.7-3.4-4-3.3
	C98.6,9,96.8,10.6,97,12.2L97,12.2z M25.7,22c0.2,0,0.3-0.1,0.5-0.1c3.4-0.2,6-3,5.8-6.4c0,0,0,0,0,0c0-3,0-6,0-8.9V6H28v0.6
	c0,2.8,0,5.7,0,8.5c0.1,1-0.3,2-1.2,2.7c-1.1,0.8-2.7,0.9-3.9,0.3c-1.1-0.5-1.8-1.7-1.6-2.9c0-2.8,0-5.7,0-8.5V6h-4.1v0.5
	c0,3,0,6,0,9c-0.1,3,1.9,5.6,4.9,6.2c0.5,0.1,1,0.2,1.5,0.3L25.7,22z M67,21.6v-9h7.8c0-1.2,0-2.3,0-3.5c0-0.4-0.1-0.6-0.6-0.6
	c-2.2,0-4.5,0-6.7,0h-0.6V4H68h8.9c0.4,0,0.6-0.1,0.6-0.5s0-0.9,0-1.4V0h-15v21.6H67z M109.6,21.6V21c0-4.8,0-9.7,0-14.5
	c0-0.6,0-0.6,0.6-0.6c2.3,0,4.5-0.1,6.8,0.1c3.2,0.3,5.7,1.7,6.9,4.9c1.2,3.1,0.3,6.7-2.2,8.9c-1.4,1.2-3.2,1.8-5,1.8
	c-2.3,0.1-4.7,0-7,0C109.7,21.6,109.6,21.6,109.6,21.6L109.6,21.6z M113.5,18.3h2.3c2.4,0.2,4.4-1.6,4.6-3.9c0-0.1,0-0.1,0-0.2
	c0.2-1.9-0.7-3.7-2.4-4.5c-1.4-0.6-3-0.3-4.4-0.4C113.5,12.3,113.5,15.2,113.5,18.3L113.5,18.3z M40,10l-6.4,8.2
	c-0.1,0.2-0.3,0.3-0.3,0.5v3h12.7V18h-7.3l0.4-0.5c2.1-2.6,4.2-5.3,6.3-7.9C45.9,9.1,46,8.6,46,8c0-0.7,0-1.3,0-2H33.4v3.5h7
	C40.2,9.8,40.1,9.9,40,10z M54.2,9.5l-0.6,0.7l-6.2,7.9c-0.1,0.1-0.2,0.3-0.2,0.4v3H60c0-1,0-2.1,0-3.1c0-0.4-0.1-0.5-0.5-0.5
	c-2,0-4.1,0-6.2,0h-0.6c0.2-0.2,0.3-0.4,0.4-0.5l6.5-8.3c0.1-0.1,0.2-0.3,0.2-0.4c0-0.9,0-1.9,0-2.8H47.2v0.4v3.2L54.2,9.5z"/>
</svg>
