<?xml version="1.0" encoding="utf-8"?>
<!-- Generator: Adobe Illustrator 19.2.0, SVG Export Plug-In . SVG Version: 6.00 Build 0)  -->
<svg version="1.1" id="Слой_1" xmlns="http://www.w3.org/2000/svg" xmlns:xlink="http://www.w3.org/1999/xlink" x="0px" y="0px"
	 viewBox="0 0 138.3 16.2" style="enable-background:new 0 0 138.3 16.2;" xml:space="preserve">
<style type="text/css">
	.st0{fill:none;}
	.st1{fill:#82939F;}
</style>
<path class="st0" d="M-26.9-18.6h192v53.3h-192V-18.6z"/>
<path class="st1" d="M18.9,10h-4.4l-1,5.8h-5l2.6-15.5h5l-1,5.6h4.4l1-5.5h5l-2.6,15.5h-5L18.9,10z M28.5,0.3L27,9
	c-0.1,0.6-0.2,1.3-0.2,1.9c0,4.6,4,5.3,6.4,5.3c5,0,7.2-1.7,8-6.2l1.7-9.7h-5l-1.5,8.1c-0.5,2.5-0.8,3.9-2.7,3.9
	c-1.2,0-1.8-0.6-1.8-2c0-0.7,0.1-1.3,0.3-1.9l1.5-8L28.5,0.3L28.5,0.3z M72.2,0.3h6.4c3.7,0,5.8,1.8,5.8,4.8c0,4.3-2.4,6.7-6.8,6.7
	h-2.4l-0.7,4h-5L72.2,0.3z M79.7,6c0-1-0.6-1.6-1.7-1.6h-1.4L75.9,8h1.5c1.1,0.2,2.1-0.6,2.3-1.7C79.7,6.2,79.7,6.1,79.7,6L79.7,6z
	 M101.3,6.6c0,6-3.3,9.5-8.8,9.5c-4.4,0-7-2.5-7-6.6c0-6,3.3-9.5,8.8-9.5C98.7,0,101.3,2.5,101.3,6.6L101.3,6.6z M95.9,8.3
	c0.1-0.6,0.2-1.1,0.2-1.7C96.1,5,95.3,4,94,4c-2.1,0-2.7,1.9-3.1,3.9c-0.1,0.6-0.2,1.1-0.2,1.7c0,1.6,0.8,2.5,2.1,2.5
	C94.9,12.2,95.5,10.3,95.9,8.3L95.9,8.3z M118.8,15.8h5l2-11.4h3.8l0.7-4.1h-12.9l-0.7,4.1h4L118.8,15.8z M110.5,6.1
	c-1.6-0.5-2.3-0.7-2.3-1.5c0-0.5,0.3-1.1,1.3-1.1c0.7,0,1.3,0.4,1.5,1l4.4-1.2C115,1.1,113.1,0,109.9,0c-6.1,0-6.6,4.1-6.6,5.3
	c0,2.5,1.3,4.1,4.3,4.9c0.8,0.2,1.6,0.4,1.6,1.3c0,0.7-0.5,1.1-1.4,1.1c-0.8,0-1.6-0.5-1.9-1.3l-4.4,1.2c0.5,2.3,2.6,3.6,6,3.6
	c2.6,0,6.9-0.7,6.9-5.4C114.5,8.4,113.2,6.9,110.5,6.1L110.5,6.1z M5.6,15.8L8.4,0.4H0v15.5H5.6z M132.6,0.4l-2.7,15.5h8.4V0.4
	H132.6z M45.7,0.4L43,15.8h5l0.8-4.6h4.3l0.7-3.9h-4.3L50,4.5H56l0.7-4.2L45.7,0.4z M59,0.4l-2.7,15.5h5l0.9-4.6h4.3l0.7-3.9h-4.3
	l0.5-2.9h5.9l0.7-4.2L59,0.4z"/>
</svg>
