<?xml version="1.0" encoding="utf-8"?>
<!-- Generator: Adobe Illustrator 19.2.0, SVG Export Plug-In . SVG Version: 6.00 Build 0)  -->
<svg version="1.1" id="Слой_1" xmlns="http://www.w3.org/2000/svg" xmlns:xlink="http://www.w3.org/1999/xlink" x="0px" y="0px"
	 viewBox="0 0 106.7 21" style="enable-background:new 0 0 106.7 21;" xml:space="preserve">
<style type="text/css">
	.st0{fill:#82939F;}
	.st1{fill:none;}
</style>
<path class="st0" d="M53.9,18.6c0,0.4,0,0.5,0.3,0.7l1.4,1.4v0.1h-6.2v-2.7c-0.6,1.7-2.3,2.9-4.1,2.9c-3.2,0-5.5-2.5-5.5-7.2
	c0-4.4,2.5-7.3,6-7.3c1.6-0.1,3,0.8,3.6,2.2V2.9c0-0.3-0.1-0.5-0.3-0.7l-1.3-1.3v0l6.2-0.7L53.9,18.6z M49.4,17.8V9
	c-0.4-0.6-1.1-0.9-1.8-0.9c-1.5,0-3,1.4-3,5.5c0,3.8,1.3,5.2,2.8,5.2C48.2,18.8,48.9,18.4,49.4,17.8z M58,20.8V9
	c0-0.3-0.1-0.5-0.3-0.7l-1.4-1.5h6.2v12c0,0.4,0,0.5,0.3,0.7l1.4,1.3v0H58z M57.8,2.5C57.8,1.1,59,0,60.4,0c1.4,0,2.5,1.1,2.5,2.5
	c0,1.4-1.1,2.5-2.5,2.5C58.9,5,57.8,3.9,57.8,2.5C57.8,2.5,57.8,2.5,57.8,2.5z M79.4,18.6c0,0.4,0,0.5,0.3,0.7l1.4,1.4v0.1h-6.2v-3
	c-0.6,1.9-2.3,3.2-4.3,3.3c-2.8,0-4.3-2-4.3-5.9c0-1.9,0-3.9,0.1-6.2c0-0.3-0.1-0.5-0.3-0.7l-1.4-1.5h6.2v7.7c0,2.5,0.4,4.2,1.9,4.2
	c0.8-0.1,1.6-0.5,2-1.3V9c0-0.3-0.1-0.5-0.3-0.7l-1.4-1.5h6.2L79.4,18.6z M100.5,20.8c0-0.5,0.1-6.2,0.1-7.6c0-2.5-0.4-4.3-2.1-4.3
	c-0.9,0-1.7,0.5-2.2,1.2c0.2,0.8,0.3,1.6,0.3,2.4c0,1.8-0.1,4-0.1,6.2c0,0.3,0.1,0.5,0.3,0.7l1.4,1.3v0h-6.3c0-0.4,0.1-6.2,0.1-7.6
	c0-2.6-0.4-4.3-2.1-4.3c-0.9,0-1.6,0.5-2.1,1.3v8.6c0,0.4,0,0.5,0.3,0.7l1.4,1.3v0h-6.2V9c0-0.3-0.1-0.5-0.3-0.7l-1.4-1.5h6.2v3
	c0.6-2,2.4-3.3,4.4-3.2c2.1,0,3.5,1.2,4.1,3.4c0.6-2,2.5-3.4,4.7-3.4c2.8,0,4.3,2.1,4.3,6c0,1.9-0.1,4-0.1,6.2
	c0,0.3,0.1,0.5,0.3,0.7l1.4,1.3v0L100.5,20.8z M22.5,18.9l1.8,1.8v0.1H15v-0.1l1.9-1.8c0.2-0.2,0.3-0.4,0.3-0.7V6.9
	c0-0.6,0-1.1,0.1-1.7L10.9,21h-0.1L4.4,6.4C4.2,6.1,4.2,6.1,4.1,5.8v9.5c-0.1,0.6,0,1.3,0.3,1.9L7,20.7v0.1H0v-0.1l2.6-3.5
	C2.9,16.6,3,16,2.9,15.4V4.8c0-0.5-0.1-1-0.4-1.4L0.6,0.9v0h6.7L13,13.2l4.9-12.3h6.5v0.1L22.5,3c-0.2,0.2-0.3,0.4-0.3,0.7v14.5
	C22.2,18.5,22.3,18.7,22.5,18.9z M29.8,13.2L29.8,13.2c0,3.7,1.8,5.1,4,5.1c1.8,0.1,3.5-1,4.3-2.6h0.1c-0.8,3.6-2.9,5.2-6.2,5.2
	c-3.5,0-6.8-2.2-6.8-7.1c0-5.2,3.3-7.3,7-7.3c3,0,6.1,1.4,6.1,6v0.7L29.8,13.2z M29.8,12.5h4.1v-0.7c0-3.7-0.8-4.7-1.9-4.7
	C30.7,7.1,29.8,8.6,29.8,12.5L29.8,12.5z"/>
<path class="st1" d="M-42.6-16.2h192v53.3h-192V-16.2z"/>
</svg>
