<svg viewBox="0 0 1920 1984" xmlns="http://www.w3.org/2000/svg"><path d="m1919.36.12a.64.64 0 0 0 -.75 0l-13.73 10-13.73-10a.64.64 0 0 0 -.75 0l-13.73 10-13.73-10a.64.64 0 0 0 -.75 0l-13.73 10-13.73-10a.64.64 0 0 0 -.75 0l-13.73 10-13.73-10a.64.64 0 0 0 -.75 0l-13.73 10-13.73-10a.64.64 0 0 0 -.75 0l-13.73 10-13.73-10a.64.64 0 0 0 -.75 0l-13.73 10-13.73-10a.64.64 0 0 0 -.75 0l-13.72 10-13.73-10a.64.64 0 0 0 -.75 0l-13.72 10-13.73-10a.64.64 0 0 0 -.75 0l-13.73 10-13.73-10a.64.64 0 0 0 -.75 0l-13.73 10-13.73-10a.64.64 0 0 0 -.75 0l-13.73 10-13.73-10a.64.64 0 0 0 -.75 0l-13.73 10-13.73-10a.64.64 0 0 0 -.75 0l-13.73 10-13.73-10a.64.64 0 0 0 -.75 0l-13.73 10-13.76-10a.64.64 0 0 0 -.75 0l-13.74 10-13.71-10a.64.64 0 0 0 -.75 0l-13.74 10-13.74-10-.13-.06h-.11-.24-.11l-.13.06-13.74 10-13.81-10a.64.64 0 0 0 -.75 0l-13.73 10-13.74-10a.64.64 0 0 0 -.75 0l-13.73 10-13.73-10a.64.64 0 0 0 -.75 0l-13.73 10-13.73-10a.64.64 0 0 0 -.75 0l-13.73 10-13.73-10a.64.64 0 0 0 -.75 0l-13.73 10-13.73-10a.64.64 0 0 0 -.75 0l-13.73 10-13.76-10a.64.64 0 0 0 -.75 0l-13.73 10-13.72-10a.64.64 0 0 0 -.75 0l-13.73 10-13.73-10a.64.64 0 0 0 -.75 0l-13.73 10-13.72-10a.64.64 0 0 0 -.75 0l-13.73 10-13.73-10a.64.64 0 0 0 -.75 0l-13.73 10-13.73-10a.64.64 0 0 0 -.75 0l-13.73 10-13.73-10a.64.64 0 0 0 -.75 0l-13.73 10-13.73-10a.64.64 0 0 0 -.75 0l-13.73 10-13.73-10a.64.64 0 0 0 -.75 0l-13.73 10-13.74-10a.64.64 0 0 0 -.75 0l-13.73 10-13.73-10a.64.64 0 0 0 -.75 0l-13.73 10-13.73-10a.64.64 0 0 0 -.75 0l-13.73 10-13.72-10a.64.64 0 0 0 -.75 0l-13.72 10-13.74-10a.64.64 0 0 0 -.75 0l-13.74 9.97-13.71-9.97a.64.64 0 0 0 -.75 0l-13.72 10-13.74-10a.64.64 0 0 0 -.75 0l-13.72 10-13.73-10a.64.64 0 0 0 -.75 0l-13.72 10-13.74-10a.64.64 0 0 0 -.75 0l-13.72 10-13.72-10a.64.64 0 0 0 -.75 0l-13.73 9.97-13.72-9.97a.64.64 0 0 0 -.75 0l-13.72 10-13.73-10a.64.64 0 0 0 -.75 0l-13.73 10-13.73-10a.64.64 0 0 0 -.75 0l-13.72 10-13.73-10a.64.64 0 0 0 -.75 0l-13.73 10-13.72-10a.64.64 0 0 0 -.75 0l-13.72 9.97-13.74-9.97a.64.64 0 0 0 -.75 0l-13.73 10-13.72-10a.64.64 0 0 0 -.75 0l-13.73 10-13.73-10a.64.64 0 0 0 -.75 0l-13.73 10-13.73-10a.64.64 0 0 0 -.75 0l-13.73 10-13.72-10a.64.64 0 0 0 -.75 0l-13.69 9.97-13.77-9.97a.64.64 0 0 0 -.75 0l-13.73 10-13.75-10a.64.64 0 0 0 -.75 0l-13.73 10-13.71-10a.64.64 0 0 0 -.75 0l-13.73 10-13.73-10a.64.64 0 0 0 -.75 0l-13.73 10-13.73-10a.64.64 0 0 0 -.75 0l-13.73 10-13.74-10a.64.64 0 0 0 -.75 0l-13.72 10-13.7-10a.64.64 0 0 0 -.75 0l-13.72 10-13.77-10a.64.64 0 0 0 -.75 0l-13.73 10-13.72-10a.64.64 0 0 0 -.75 0l-13.73 10-13.74-10a.64.64 0 0 0 -.75 0l-13.73 10-13.73-10a.64.64 0 0 0 -.75 0l-13.73 10-13.74-10a.64.64 0 0 0 -.75 0l-13.73 10-13.74-10a.64.64 0 0 0 -.75 0l-13.73 10-13.73-10a.64.64 0 0 0 -.75 0l-13.73 9.97-13.75-9.97a.64.64 0 0 0 -.75 0l-13.74 10-13.76-10a.64.64 0 1 0 -.75 1l-.25 9.12v1973.17l.64.46a.64.64 0 0 0 .75 0l13.73-10 13.73 10a.64.64 0 0 0 .75 0l13.73-10 13.73 10a.64.64 0 0 0 .75 0l13.73-10 13.73 10a.64.64 0 0 0 .75 0l13.73-10 13.73 10a.64.64 0 0 0 .75 0l13.73-10 13.73 10a.64.64 0 0 0 .75 0l13.73-10 13.73 10a.64.64 0 0 0 .75 0l13.73-10 13.73 10a.64.64 0 0 0 .75 0l13.72-10 13.73 10a.64.64 0 0 0 .75 0l13.72-10 13.73 10a.64.64 0 0 0 .75 0l13.73-10 13.73 10a.64.64 0 0 0 .75 0l13.73-10 13.73 10a.64.64 0 0 0 .75 0l13.73-10 13.73 10a.64.64 0 0 0 .75 0l13.73-10 13.73 10a.64.64 0 0 0 .75 0l13.73-10 13.73 10a.64.64 0 0 0 .75 0l13.73-10 13.73 10a.64.64 0 0 0 .75 0l13.74-10 13.73 10a.64.64 0 0 0 .75 0l13.74-10 13.74 10 .13.06h.11.24.1l.13-.06 13.74-10 13.74 10a.64.64 0 0 0 .75 0l13.73-10 13.74 10a.64.64 0 0 0 .75 0l13.73-10 13.73 10a.64.64 0 0 0 .75 0l13.73-10 13.73 10a.64.64 0 0 0 .75 0l13.73-10 13.73 10a.64.64 0 0 0 .75 0l13.73-10 13.73 10a.64.64 0 0 0 .75 0l13.73-10 13.73 10a.64.64 0 0 0 .75 0l13.73-10 13.73 10a.64.64 0 0 0 .75 0l13.73-10 13.72 10a.64.64 0 0 0 .75 0l13.73-10 13.72 10a.64.64 0 0 0 .75 0l13.73-10 13.73 10a.64.64 0 0 0 .75 0l13.73-10 13.73 10a.64.64 0 0 0 .75 0l13.73-10 13.73 10a.64.64 0 0 0 .75 0l13.73-10 13.73 10a.64.64 0 0 0 .75 0l13.73-10 13.73 10a.64.64 0 0 0 .75 0l13.73-10 13.73 10a.64.64 0 0 0 .75 0l13.73-10 13.73 10a.64.64 0 0 0 .75 0l13.73-10 13.73 10a.64.64 0 0 0 .75 0l13.73-10 13.73 10a.64.64 0 0 0 .75 0l13.72-10 13.73 10a.64.64 0 0 0 .75 0l13.73-10 13.72 10a.64.64 0 0 0 .75 0l13.73-10 13.73 10a.64.64 0 0 0 .75 0l13.72-10 13.72 10a.64.64 0 0 0 .75 0l13.72-10 13.73 10a.64.64 0 0 0 .75 0l13.72-10 13.72 10a.64.64 0 0 0 .75 0l13.72-10 13.72 10a.64.64 0 0 0 .75 0l13.72-10 13.72 10a.64.64 0 0 0 .75 0l13.73-10 13.72 10a.64.64 0 0 0 .75 0l13.72-10 13.72 10a.64.64 0 0 0 .75 0l13.73-10 13.73 10a.64.64 0 0 0 .75 0l13.72-10 13.73 10a.64.64 0 0 0 .75 0l13.73-10 13.72 10a.64.64 0 0 0 .75 0l13.73-10 13.73 10a.64.64 0 0 0 .75 0l13.73-10 13.73 10a.64.64 0 0 0 .75 0l13.73-10 13.73 10a.64.64 0 0 0 .75 0l13.73-10 13.73 10a.64.64 0 0 0 .75 0l13.73-10 13.73 10a.64.64 0 0 0 .75 0l13.73-10 13.73 10a.64.64 0 0 0 .75 0l13.73-10 13.73 10a.64.64 0 0 0 .75 0l13.73-10 13.73 10a.64.64 0 0 0 .75 0l13.73-10 13.73 10a.64.64 0 0 0 .75 0l13.72-10 13.73 10a.64.64 0 0 0 .75 0l13.73-10 13.73 10a.64.64 0 0 0 .75 0l13.73-10 13.73 10a.64.64 0 0 0 .75 0l13.73-10 13.73 10a.64.64 0 0 0 .75 0l13.73-10 13.73 10a.64.64 0 0 0 .75 0l13.73-10 13.73 10a.64.64 0 0 0 .75 0l13.73-10 13.73 10a.64.64 0 0 0 .75 0l13.73-10 13.73 10a.64.64 0 0 0 .75 0l13.74-10 13.73 10a.64.64 0 0 0 .75 0l13.74-10 13.74 10a.64.64 0 1 0 .75-1l.26-9.08v-1973.21z" fill="#dfe4e7"/></svg>