<svg viewBox="0 0 1536 435.7" xmlns="http://www.w3.org/2000/svg"><path d="m1536 416.95h-1536" fill="none" stroke="#2c4c61" stroke-miterlimit="10"/><path d="m698.2 416.94a24 24 0 1 1 48 0" fill="none" stroke="#2c4c61" stroke-miterlimit="10"/><path d="m32.67 416.94a24 24 0 1 1 48 0" fill="none" stroke="#2c4c61" stroke-miterlimit="10"/><path d="m127.75 416.94a24 24 0 1 1 48 0" fill="none" stroke="#2c4c61" stroke-miterlimit="10"/><path d="m222.83 416.94a24 24 0 1 1 48 0" fill="none" stroke="#2c4c61" stroke-miterlimit="10"/><path d="m317.9 416.94a24 24 0 1 1 48 0" fill="none" stroke="#2c4c61" stroke-miterlimit="10"/><path d="m413 416.94a24 24 0 1 1 48 0" fill="none" stroke="#2c4c61" stroke-miterlimit="10"/><path d="m508.05 416.94a24 24 0 1 1 48 0" fill="none" stroke="#2c4c61" stroke-miterlimit="10"/><path d="m603.13 416.94a24 24 0 1 1 48 0" fill="none" stroke="#2c4c61" stroke-miterlimit="10"/><path d="m0 376.81h1536" fill="none" stroke="#2c4c61" stroke-miterlimit="10"/><path d="m837.8 416.94a24 24 0 1 0 -48 0" fill="none" stroke="#2c4c61" stroke-miterlimit="10"/><path d="m1503.33 416.94a24 24 0 1 0 -48 0" fill="none" stroke="#2c4c61" stroke-miterlimit="10"/><path d="m1408.25 416.94a24 24 0 1 0 -48 0" fill="none" stroke="#2c4c61" stroke-miterlimit="10"/><path d="m1313.17 416.94a24 24 0 0 0 -48 0" fill="none" stroke="#2c4c61" stroke-miterlimit="10"/><path d="m1218.1 416.94a24 24 0 0 0 -48 0" fill="none" stroke="#2c4c61" stroke-miterlimit="10"/><path d="m1123 416.94a24 24 0 1 0 -48 0" fill="none" stroke="#2c4c61" stroke-miterlimit="10"/><path d="m1027.95 416.94a24 24 0 0 0 -48 0" fill="none" stroke="#2c4c61" stroke-miterlimit="10"/><path d="m932.87 416.94a24 24 0 1 0 -48 0" fill="none" stroke="#2c4c61" stroke-miterlimit="10"/><path d="m1535 367.24v67.46h-1534v-67.46zm1-1h-1536v69.46h1536z" fill="#2c4c61"/><g fill="none" stroke="#2c4c61"><path d="m1520.42 296.66h-135.52-85.57v17.51 52.07" stroke-miterlimit="10"/><path d="m1365.89 296.66v-148.95h154.53" stroke-miterlimit="10"/><path d="m1443.15 148.21v-121.42h77.27v339.45" stroke-miterlimit="10"/><path d="m1394.94 148.21v146.21" stroke-miterlimit="10"/><path d="m1426.63 148.21v146.21" stroke-miterlimit="10"/><path d="m1458.32 148.21v146.21" stroke-miterlimit="10"/><path d="m1490.01 148.21v146.21" stroke-miterlimit="10"/><path d="m1366.2 268.85h155.72" stroke-miterlimit="10"/><path d="m1366.2 237.16h155.72" stroke-miterlimit="10"/><path d="m1366.2 205.47h155.72" stroke-miterlimit="10"/><path d="m1366.2 173.77h155.72" stroke-miterlimit="10"/><path d="m1443.15 43.52h77.27" stroke-miterlimit="10"/><path d="m1443.15 56.2h77.27" stroke-miterlimit="10"/><path d="m1443.15 106.91h77.27" stroke-miterlimit="10"/><path d="m1443.15 119.58h77.27" stroke-miterlimit="10"/><path d="m1443.15 75.22h77.27" stroke-miterlimit="10"/><path d="m1443.15 87.89h77.27" stroke-miterlimit="10"/><path d="m1458.32 43.52v12.68" stroke-miterlimit="10"/><path d="m1477.34 106.91v12.67" stroke-miterlimit="10"/><path d="m1493.18 75.22v12.67" stroke-miterlimit="10"/><path d="m1499.52 26.79v-15.35" stroke-miterlimit="10"/><path d="m1316.77 366.24v-50.7h203.65" stroke-miterlimit="10"/><path d="m1332.61 366.24 34.19-34.19h153.62" stroke-miterlimit="10"/><path d="m1361.13 366.24 18.35-18.35h140.94" stroke-miterlimit="10"/><path d="m1394.94 347.89v18.35" stroke-miterlimit="10"/><path d="m1426.63 347.89v18.35" stroke-miterlimit="10"/><path d="m1458.32 347.89v18.35" stroke-miterlimit="10"/><path d="m1490.01 347.89v18.35" stroke-miterlimit="10"/><path d="m274.87 364.87v-173.99l-54-56-56.8 56v36.07 8.74 5.99 11.57 3.99 4.47 103.16" stroke-miterlimit="10"/><path d="m274.87 190.88h-110.79" stroke-miterlimit="10"/><path d="m264.84 190.88-45.19-45.19-45.46 45.46" stroke-miterlimit="10"/><path d="m180.43 184.91h78.44" stroke-miterlimit="10"/><path d="m209.18 164.14h22.58v15.45h-22.58z" stroke-miterlimit="10"/><path d="m185.74 209.1h16.37v35.39h-16.37z" stroke-miterlimit="10"/><path d="m185.74 226.8h16.37" stroke-miterlimit="10"/><path d="m217.43 209.1h48.07v35.39h-48.07z" stroke-miterlimit="10"/><path d="m228.26 209.1v35.39" stroke-miterlimit="10"/><path d="m253.61 209.1v35.39" stroke-miterlimit="10"/><path d="m217.43 262.98h48.07v35.39h-48.07z" stroke-miterlimit="10"/><path d="m228.26 262.98v35.39" stroke-miterlimit="10"/><path d="m253.61 262.98v35.39" stroke-miterlimit="10"/><path d="m217.43 316.86h48.07v35.39h-48.07z" stroke-miterlimit="10"/><path d="m228.26 316.86v35.38" stroke-miterlimit="10"/><path d="m253.61 316.86v35.38" stroke-miterlimit="10"/><path d="m205 364.87v-84.2s1.71-14.07-14.07-14.07" stroke-miterlimit="10"/><path d="m178.33 364.87v-84.2s-1.71-14.07 14.07-14.07" stroke-miterlimit="10"/><path d="m178.28 357.66h26.79" stroke-miterlimit="10"/><path d="m178.28 351.32h26.79" stroke-miterlimit="10"/><path d="m178.28 344.98h26.79" stroke-miterlimit="10"/><path d="m178.28 338.64h26.79" stroke-miterlimit="10"/><path d="m178.28 332.31h26.79" stroke-miterlimit="10"/><path d="m178.28 325.97h26.79" stroke-miterlimit="10"/><path d="m178.28 319.63h26.79" stroke-miterlimit="10"/><path d="m178.28 313.29h26.79" stroke-miterlimit="10"/><path d="m199.28 295.86v4.75" stroke-miterlimit="10"/><path d="m242.41 157.23v-12.5h-5.9v6.25" stroke-miterlimit="10"/><path d="m148.67 364.65v-205.65l-11.03-11.44-20.15-20.89-32.65-33.84-67.12 66.17v205.65" stroke-miterlimit="10"/><path d="m17.72 159h12.27 87.5 19.33.82 11.03" stroke-miterlimit="10"/><path d="m29.67 159.31.32-.31 7.06-7.07 46.37-46.33 34.07 34.07 12.26 12.26 7.07 7.07" stroke-miterlimit="10"/><path d="m37.05 151.93h80.44 12.26" stroke-miterlimit="10"/><path d="m71.03 127.39h26.69v18.26h-26.69z" stroke-miterlimit="10"/><path d="m43.33 180.54h19.35v41.83h-19.35z" stroke-miterlimit="10"/><path d="m43.33 201.45h19.35" stroke-miterlimit="10"/><path d="m80.79 180.54h56.81v41.83h-56.81z" stroke-miterlimit="10"/><path d="m93.58 180.54v41.82" stroke-miterlimit="10"/><path d="m123.55 180.54v41.82" stroke-miterlimit="10"/><path d="m66.12 364.63v-99.51s2-16.63-16.63-16.63" stroke-miterlimit="10"/><path d="m34.57 364.63v-99.51s-2-16.63 16.63-16.63" stroke-miterlimit="10"/><path d="m34.51 356.11h31.67" stroke-miterlimit="10"/><path d="m34.51 348.62h31.67" stroke-miterlimit="10"/><path d="m34.51 341.13h31.67" stroke-miterlimit="10"/><path d="m34.51 333.64h31.67" stroke-miterlimit="10"/><path d="m34.51 326.14h31.67" stroke-miterlimit="10"/><path d="m34.51 318.65h31.67" stroke-miterlimit="10"/><path d="m34.51 311.16h31.67" stroke-miterlimit="10"/><path d="m34.51 303.67h31.67" stroke-miterlimit="10"/><path d="m110.31 119.23v-14.78h-6.97v7.39" stroke-miterlimit="10"/><path d="m84.84 92.83v-13.43" stroke-miterlimit="10"/><path d="m81.36 243.92h19.35v41.83h-19.35z" stroke-miterlimit="10"/><path d="m81.36 264.83h19.35" stroke-miterlimit="10"/><path d="m119.39 243.92h19.35v41.83h-19.35z" stroke-miterlimit="10"/><path d="m119.39 264.83h19.35" stroke-miterlimit="10"/><circle cx="49.74" cy="272.66" r="11" stroke-miterlimit="10"/><path d="m81.36 307.3h19.35v41.83h-19.35z" stroke-miterlimit="10"/><path d="m81.36 328.22h19.35" stroke-miterlimit="10"/><path d="m119.39 307.3h19.35v41.83h-19.35z" stroke-miterlimit="10"/><path d="m119.39 328.22h19.35" stroke-miterlimit="10"/><path d="m373.68 364.65v-205.65l-21.48-22.28-16.86-17.5-25.48-26.39-67.13 66.17" stroke-miterlimit="10"/><path d="m242.73 159h12.27 106.83 11.85" stroke-miterlimit="10"/><path d="m254.68 159.31.32-.31 7.06-7.07 46.37-46.33 46.33 46.33 7.07 7.07" stroke-miterlimit="10"/><path d="m262.07 151.95h92.7" stroke-miterlimit="10"/><path d="m296.04 127.39h26.69v18.26h-26.69z" stroke-miterlimit="10"/><path d="m305.8 180.54h56.81v41.83h-56.81z" stroke-miterlimit="10"/><path d="m318.6 180.54v41.82" stroke-miterlimit="10"/><path d="m348.56 180.54v41.82" stroke-miterlimit="10"/><path d="m335.32 119.23v-14.78h-6.97v7.39" stroke-miterlimit="10"/><path d="m306.37 243.92h19.35v41.83h-19.35z" stroke-miterlimit="10"/><path d="m306.37 264.83h19.35" stroke-miterlimit="10"/><path d="m344.4 243.92h19.35v41.83h-19.35z" stroke-miterlimit="10"/><path d="m344.4 264.83h19.36" stroke-miterlimit="10"/><path d="m306.37 307.3h19.35v41.83h-19.35z" stroke-miterlimit="10"/><path d="m306.37 328.22h19.35" stroke-miterlimit="10"/><path d="m344.4 307.3h19.35v41.83h-19.35z" stroke-miterlimit="10"/><path d="m344.4 328.22h19.36" stroke-miterlimit="10"/><path d="m515.73 364.87v-173.99l-54.01-56-49.94 49.25-5.58 5.51-1.27 1.24v16.23 5.95 151.81" stroke-miterlimit="10"/><path d="m515.73 190.88h-110.79" stroke-miterlimit="10"/><path d="m415.04 191.16 24.85-24.84 20.16-20.16.47-.47 45.16 45.19" stroke-miterlimit="10"/><path d="m421.29 184.91h78.44" stroke-miterlimit="10"/><path d="m450.03 164.13h22.6v15.47h-22.6z" stroke-miterlimit="10"/><path d="m426.6 209.1h16.37v35.39h-16.37z" stroke-miterlimit="10"/><path d="m426.6 226.8h16.37" stroke-miterlimit="10"/><path d="m458.29 209.1h48.07v35.39h-48.07z" stroke-miterlimit="10"/><path d="m469.12 209.1v35.39" stroke-miterlimit="10"/><path d="m494.47 209.1v35.39" stroke-miterlimit="10"/><path d="m458.29 262.98h48.07v35.39h-48.07z" stroke-miterlimit="10"/><path d="m469.12 262.98v35.39" stroke-miterlimit="10"/><path d="m494.47 262.98v35.39" stroke-miterlimit="10"/><path d="m458.29 316.86h48.07v35.39h-48.07z" stroke-miterlimit="10"/><path d="m469.12 316.86v35.38" stroke-miterlimit="10"/><path d="m494.47 316.86v35.38" stroke-miterlimit="10"/><path d="m445.88 364.87v-84.2s1.71-14.07-14.07-14.07" stroke-miterlimit="10"/><path d="m419.19 364.87v-84.2s-1.71-14.07 14.07-14.07" stroke-miterlimit="10"/><path d="m419.13 357.66h26.8" stroke-miterlimit="10"/><path d="m419.13 351.32h26.8" stroke-miterlimit="10"/><path d="m419.13 344.98h26.8" stroke-miterlimit="10"/><path d="m419.13 338.64h26.8" stroke-miterlimit="10"/><path d="m419.13 332.31h26.8" stroke-miterlimit="10"/><path d="m419.13 325.97h26.8" stroke-miterlimit="10"/><path d="m419.13 319.63h26.8" stroke-miterlimit="10"/><path d="m419.13 313.29h26.8" stroke-miterlimit="10"/><path d="m440.13 295.86v4.75" stroke-miterlimit="10"/><path d="m483.27 157.23v-12.5h-5.9v6.25" stroke-miterlimit="10"/><path d="m328.36 108.2h-3.67" stroke-miterlimit="10"/><path d="m460.04 146.16-20.15 20.16" stroke-miterlimit="10"/><path d="m460.05 164.13h-10.02v10.37" stroke-miterlimit="10"/><path d="m631.09 366.24v-24.82h73.55" stroke-miterlimit="10"/><path d="m631.09 348.15h73.55" stroke-miterlimit="10"/><path d="m720.59 366.24v-24.82h-15.95" stroke-miterlimit="10"/><path d="m720.59 348.15h-15.95" stroke-miterlimit="10"/><path d="m430.57 66.41h-11.04" stroke-linecap="round" stroke-linejoin="round"/><path d="m512.17 66.41h-9.6" stroke-linecap="round" stroke-linejoin="round"/><path d="m542.89 66.41h-22.56" stroke-linecap="round" stroke-linejoin="round"/><path d="m409 66.41h-42.84a9.4 9.4 0 0 1 7.43-15.19 9.44 9.44 0 0 1 2.67.38 14.07 14.07 0 0 1 24.54-6.47 12.87 12.87 0 0 1 12.4 1.92 22.24 22.24 0 0 1 21.8-18.05 22 22 0 0 1 12 3.51 36.48 36.48 0 0 1 71.16-6 22.06 22.06 0 0 1 34.56 22.71 10.79 10.79 0 0 1 3-.42 10.67 10.67 0 0 1 7 2.55 13.91 13.91 0 0 1 27.78 1.11 10.86 10.86 0 0 1 -.15 1.94 8.84 8.84 0 0 1 1.75-.17 9.6 9.6 0 0 1 9.6 9.6 9.32 9.32 0 0 1 -.35 2.55h-47.9" stroke-linecap="round" stroke-linejoin="round"/><path d="m153.78 107.8h-13.78a9.14 9.14 0 0 1 -.92-4 9.34 9.34 0 0 1 9.33-9.33 9.24 9.24 0 0 1 2.94.48" stroke-linecap="round" stroke-linejoin="round"/><path d="m151.31 94.92a16.8 16.8 0 0 1 16.44-13.31 13.58 13.58 0 0 1 2.17.15" stroke-linecap="round" stroke-linejoin="round"/><path d="m169.91 81.77a24.23 24.23 0 0 1 47.17.52" stroke-linecap="round" stroke-linejoin="round"/><path d="m217.09 82.28a17.13 17.13 0 0 1 26.11 12.9" stroke-linecap="round" stroke-linejoin="round"/><path d="m243.2 95.19a9.44 9.44 0 0 1 3.69-.75 9.69 9.69 0 0 1 9.68 9.7 9.33 9.33 0 0 1 -.73 3.67h-16.56" stroke-linecap="round" stroke-linejoin="round"/><path d="m139.96 107.8h23.96" stroke-linecap="round" stroke-linejoin="round"/><path d="m219.12 107.8h10.56" stroke-linecap="round" stroke-linejoin="round"/><path d="m993.94 364.87v-173.99l54-56 56.79 56v36.07 8.74 5.99 11.57 3.99 4.47 103.16" stroke-miterlimit="10"/><path d="m993.94 190.88h110.78" stroke-miterlimit="10"/><path d="m1003.97 190.88 45.19-45.19 45.45 45.46" stroke-miterlimit="10"/><path d="m1088.37 184.91h-78.43" stroke-miterlimit="10"/><path d="m1037.05 164.14h22.58v15.45h-22.58z" stroke-miterlimit="10" transform="matrix(-1 0 0 -1 2096.68 343.73)"/><path d="m1066.69 209.1h16.37v35.39h-16.37z" stroke-miterlimit="10" transform="matrix(-1 0 0 -1 2149.76 453.6)"/><path d="m1083.07 226.8h-16.38" stroke-miterlimit="10"/><path d="m1003.31 209.1h48.07v35.39h-48.07z" stroke-miterlimit="10" transform="matrix(-1 0 0 -1 2054.69 453.6)"/><path d="m1040.55 209.1v35.39" stroke-miterlimit="10"/><path d="m1015.19 209.1v35.39" stroke-miterlimit="10"/><path d="m1003.31 262.98h48.07v35.39h-48.07z" stroke-miterlimit="10" transform="matrix(-1 0 0 -1 2054.69 561.35)"/><path d="m1040.55 262.98v35.39" stroke-miterlimit="10"/><path d="m1015.19 262.98v35.39" stroke-miterlimit="10"/><path d="m1003.31 316.86h48.07v35.39h-48.07z" stroke-miterlimit="10" transform="matrix(-1 0 0 -1 2054.69 669.1)"/><path d="m1040.55 316.86v35.38" stroke-miterlimit="10"/><path d="m1015.19 316.86v35.38" stroke-miterlimit="10"/><path d="m1063.79 364.87v-84.2s-1.71-14.07 14.07-14.07" stroke-miterlimit="10"/><path d="m1090.48 364.87v-84.2s1.71-14.07-14.07-14.07" stroke-miterlimit="10"/><path d="m1090.53 357.66h-26.8" stroke-miterlimit="10"/><path d="m1090.53 351.32h-26.8" stroke-miterlimit="10"/><path d="m1090.53 344.98h-26.8" stroke-miterlimit="10"/><path d="m1090.53 338.64h-26.8" stroke-miterlimit="10"/><path d="m1090.53 332.31h-26.8" stroke-miterlimit="10"/><path d="m1090.53 325.97h-26.8" stroke-miterlimit="10"/><path d="m1090.53 319.63h-26.8" stroke-miterlimit="10"/><path d="m1090.53 313.29h-26.8" stroke-miterlimit="10"/><path d="m1069.53 295.86v4.75" stroke-miterlimit="10"/><path d="m1026.39 157.23v-12.5h5.91v6.25" stroke-miterlimit="10"/><path d="m1120.14 364.65v-205.65l11.03-11.44 20.15-20.89 32.64-33.84 67.13 66.17v205.65" stroke-miterlimit="10"/><path d="m1251.09 159h-12.27-87.5-19.33-.82-11.03" stroke-miterlimit="10"/><path d="m1239.14 159.31-.32-.31-7.06-7.07-46.37-46.33-34.07 34.07-12.26 12.26-7.07 7.07" stroke-miterlimit="10"/><path d="m1231.76 151.93h-80.44-12.26" stroke-miterlimit="10"/><path d="m1171.09 127.39h26.69v18.26h-26.69z" stroke-miterlimit="10" transform="matrix(-1 0 0 -1 2368.87 273.05)"/><path d="m1206.13 180.54h19.35v41.83h-19.35z" stroke-miterlimit="10" transform="matrix(-1 0 0 -1 2431.61 402.9)"/><path d="m1225.48 201.45h-19.35" stroke-miterlimit="10"/><path d="m1131.22 180.54h56.81v41.83h-56.81z" stroke-miterlimit="10" transform="matrix(-1 0 0 -1 2319.24 402.9)"/><path d="m1175.23 180.54v41.82" stroke-miterlimit="10"/><path d="m1145.26 180.54v41.82" stroke-miterlimit="10"/><path d="m1202.69 364.63v-99.51s-2-16.63 16.63-16.63" stroke-miterlimit="10"/><path d="m1234.24 364.63v-99.51s2-16.63-16.63-16.63" stroke-miterlimit="10"/><path d="m1234.3 356.11h-31.67" stroke-miterlimit="10"/><path d="m1234.3 348.62h-31.67" stroke-miterlimit="10"/><path d="m1234.3 341.13h-31.67" stroke-miterlimit="10"/><path d="m1234.3 333.64h-31.67" stroke-miterlimit="10"/><path d="m1234.3 326.14h-31.67" stroke-miterlimit="10"/><path d="m1234.3 318.65h-31.67" stroke-miterlimit="10"/><path d="m1234.3 311.16h-31.67" stroke-miterlimit="10"/><path d="m1234.3 303.67h-31.67" stroke-miterlimit="10"/><path d="m1158.5 119.23v-14.78h6.97v7.39" stroke-miterlimit="10"/><path d="m1183.97 92.83v-13.43" stroke-miterlimit="10"/><path d="m1168.1 243.92h19.35v41.83h-19.35z" stroke-miterlimit="10" transform="matrix(-1 0 0 -1 2355.54 529.66)"/><path d="m1187.45 264.83h-19.35" stroke-miterlimit="10"/><path d="m1130.07 243.92h19.35v41.83h-19.35z" stroke-miterlimit="10" transform="matrix(-1 0 0 -1 2279.48 529.66)"/><path d="m1149.42 264.83h-19.35" stroke-miterlimit="10"/><circle cx="1219.07" cy="272.66" r="11" stroke-miterlimit="10"/><path d="m1168.1 307.3h19.35v41.83h-19.35z" stroke-miterlimit="10" transform="matrix(-1 0 0 -1 2355.54 656.43)"/><path d="m1187.45 328.22h-19.35" stroke-miterlimit="10"/><path d="m1130.07 307.3h19.35v41.83h-19.35z" stroke-miterlimit="10" transform="matrix(-1 0 0 -1 2279.48 656.43)"/><path d="m1149.42 328.22h-19.35" stroke-miterlimit="10"/><path d="m895.13 364.65v-205.65l21.48-22.28 16.86-17.5 25.48-26.39 67.13 66.17" stroke-miterlimit="10"/><path d="m1026.08 159h-12.27-106.83-11.85" stroke-miterlimit="10"/><path d="m1014.13 159.31-.32-.31-7.07-7.07-46.36-46.33-46.34 46.33-7.06 7.07" stroke-miterlimit="10"/><path d="m1006.74 151.95h-92.7" stroke-miterlimit="10"/><path d="m946.08 127.39h26.69v18.26h-26.69z" stroke-miterlimit="10" transform="matrix(-1 0 0 -1 1918.84 273.05)"/><path d="m906.2 180.54h56.81v41.83h-56.81z" stroke-miterlimit="10" transform="matrix(-1 0 0 -1 1869.21 402.9)"/><path d="m950.21 180.54v41.82" stroke-miterlimit="10"/><path d="m920.25 180.54v41.82" stroke-miterlimit="10"/><path d="m933.49 119.23v-14.78h6.97v7.39" stroke-miterlimit="10"/><path d="m943.08 243.92h19.35v41.83h-19.35z" stroke-miterlimit="10" transform="matrix(-1 0 0 -1 1905.52 529.66)"/><path d="m962.44 264.83h-19.36" stroke-miterlimit="10"/><path d="m905.05 243.92h19.35v41.83h-19.35z" stroke-miterlimit="10" transform="matrix(-1 0 0 -1 1829.46 529.66)"/><path d="m924.41 264.83h-19.36" stroke-miterlimit="10"/><path d="m943.08 307.3h19.35v41.83h-19.35z" stroke-miterlimit="10" transform="matrix(-1 0 0 -1 1905.52 656.43)"/><path d="m962.44 328.22h-19.36" stroke-miterlimit="10"/><path d="m905.05 307.3h19.35v41.83h-19.35z" stroke-miterlimit="10" transform="matrix(-1 0 0 -1 1829.46 656.43)"/><path d="m924.41 328.22h-19.36" stroke-miterlimit="10"/><path d="m753.08 364.87v-173.99l54.01-56 49.94 49.25 5.58 5.51 1.27 1.24v16.23 5.95 151.81" stroke-miterlimit="10"/><path d="m753.08 190.88h110.79" stroke-miterlimit="10"/><path d="m853.77 191.16-24.85-24.84-20.16-20.16-.47-.47-45.16 45.19" stroke-miterlimit="10"/><path d="m847.52 184.91h-78.44" stroke-miterlimit="10"/><path d="m796.18 164.13h22.6v15.47h-22.6z" stroke-miterlimit="10"/><path d="m825.84 209.1h16.37v35.39h-16.37z" stroke-miterlimit="10" transform="matrix(-1 0 0 -1 1668.05 453.6)"/><path d="m842.21 226.8h-16.37" stroke-miterlimit="10"/><path d="m762.45 209.1h48.07v35.39h-48.07z" stroke-miterlimit="10" transform="matrix(-1 0 0 -1 1572.97 453.6)"/><path d="m799.69 209.1v35.39" stroke-miterlimit="10"/><path d="m774.34 209.1v35.39" stroke-miterlimit="10"/><path d="m762.45 262.98h48.07v35.39h-48.07z" stroke-miterlimit="10" transform="matrix(-1 0 0 -1 1572.97 561.35)"/><path d="m799.69 262.98v35.39" stroke-miterlimit="10"/><path d="m774.34 262.98v35.39" stroke-miterlimit="10"/><path d="m762.45 316.86h48.07v35.39h-48.07z" stroke-miterlimit="10" transform="matrix(-1 0 0 -1 1572.97 669.1)"/><path d="m799.69 316.86v35.38" stroke-miterlimit="10"/><path d="m774.34 316.86v35.38" stroke-miterlimit="10"/><path d="m822.93 364.87v-84.2s-1.71-14.07 14.07-14.07" stroke-miterlimit="10"/><path d="m849.62 364.87v-84.2s1.71-14.07-14.07-14.07" stroke-miterlimit="10"/><path d="m849.68 357.66h-26.8" stroke-miterlimit="10"/><path d="m849.68 351.32h-26.8" stroke-miterlimit="10"/><path d="m849.68 344.98h-26.8" stroke-miterlimit="10"/><path d="m849.68 338.64h-26.8" stroke-miterlimit="10"/><path d="m849.68 332.31h-26.8" stroke-miterlimit="10"/><path d="m849.68 325.97h-26.8" stroke-miterlimit="10"/><path d="m849.68 319.63h-26.8" stroke-miterlimit="10"/><path d="m849.68 313.29h-26.8" stroke-miterlimit="10"/><path d="m828.67 295.86v4.75" stroke-miterlimit="10"/><path d="m785.53 157.23v-12.5h5.91v6.25" stroke-miterlimit="10"/><path d="m940.44 108.2h3.68" stroke-miterlimit="10"/><path d="m808.76 146.16 20.16 20.16" stroke-miterlimit="10"/><path d="m808.76 164.13h10.02v10.37" stroke-miterlimit="10"/><path d="m601.2 314v51.46" stroke-miterlimit="10"/><path d="m595.01 365.46v-51.46" stroke-miterlimit="10"/><path d="m601.2 333.24 17.01-13.42" stroke-miterlimit="10"/><circle cx="598.08" cy="288.5" r="24.61" stroke-linecap="round" stroke-linejoin="round"/><path d="m580.18 288.5a17.9 17.9 0 0 1 17.9-17.9" stroke-linecap="round" stroke-linejoin="round"/><path d="m547.71 345.53v21.85" stroke-miterlimit="10"/><path d="m553.21 367.38v-21.85" stroke-miterlimit="10"/><path d="m547.71 355.81-6.83-5.39" stroke-miterlimit="10"/><path d="m531.29 345.24 16.28-18.22h-13.6l13.6-15.21h-10.18l13.65-15.28 13.65 15.28h-10.18l13.6 15.21h-13.6l16.28 18.22z" stroke-miterlimit="10"/><path d="m1281.62 95.64h-13.82a9.14 9.14 0 0 1 -.92-4 9.34 9.34 0 0 1 9.33-9.33 9.24 9.24 0 0 1 2.94.48" stroke-linecap="round" stroke-linejoin="round"/><path d="m1279.15 82.76a16.8 16.8 0 0 1 16.44-13.31 13.58 13.58 0 0 1 2.17.15" stroke-linecap="round" stroke-linejoin="round"/><path d="m1297.75 69.61a24.23 24.23 0 0 1 47.17.52" stroke-linecap="round" stroke-linejoin="round"/><path d="m1344.93 70.12a17.13 17.13 0 0 1 26.07 12.88" stroke-linecap="round" stroke-linejoin="round"/><path d="m1371 83a9.44 9.44 0 0 1 3.69-.75 9.69 9.69 0 0 1 9.68 9.7 9.33 9.33 0 0 1 -.73 3.67h-16.55" stroke-linecap="round" stroke-linejoin="round"/><path d="m1267.8 95.64h23.96" stroke-linecap="round" stroke-linejoin="round"/><path d="m1346.96 95.64h10.56" stroke-linecap="round" stroke-linejoin="round"/><path d="m622.26 166.68h-13.82a9.14 9.14 0 0 1 -.92-4 9.34 9.34 0 0 1 9.33-9.33 9.24 9.24 0 0 1 2.94.48" stroke-linecap="round" stroke-linejoin="round"/><path d="m619.79 153.8a16.8 16.8 0 0 1 16.44-13.31 13.58 13.58 0 0 1 2.17.15" stroke-linecap="round" stroke-linejoin="round"/><path d="m638.39 140.65a24.23 24.23 0 0 1 47.17.52" stroke-linecap="round" stroke-linejoin="round"/><path d="m685.57 141.16a17.13 17.13 0 0 1 26.11 12.9" stroke-linecap="round" stroke-linejoin="round"/><path d="m711.68 154.07a9.44 9.44 0 0 1 3.69-.75 9.69 9.69 0 0 1 9.63 9.68 9.33 9.33 0 0 1 -.73 3.67h-16.51" stroke-linecap="round" stroke-linejoin="round"/><path d="m608.44 166.68h23.96" stroke-linecap="round" stroke-linejoin="round"/><path d="m687.6 166.68h10.56" stroke-linecap="round" stroke-linejoin="round"/></g></svg>