<?xml version="1.0" encoding="utf-8"?>
<!-- Generator: Adobe Illustrator 19.2.0, SVG Export Plug-In . SVG Version: 6.00 Build 0)  -->
<svg version="1.1" id="Слой_1" xmlns="http://www.w3.org/2000/svg" xmlns:xlink="http://www.w3.org/1999/xlink" x="0px" y="0px"
	 viewBox="0 0 748.8 437.7" style="enable-background:new 0 0 748.8 437.7;" xml:space="preserve">
<style type="text/css">
	.st0{clip-path:url(#SVGID_2_);}
	.st1{fill:none;stroke:#2C4C61;stroke-miterlimit:10;}
	.st2{fill:#2C4C61;}
	.st3{fill:none;stroke:#2C4C61;stroke-linecap:round;stroke-linejoin:round;}
</style>
<g>
	<defs>
		<rect id="SVGID_1_" y="-51.3" width="748.8" height="489"/>
	</defs>
	<clipPath id="SVGID_2_">
		<use xlink:href="#SVGID_1_"  style="overflow:visible;"/>
	</clipPath>
	<g class="st0">
		<path class="st1" d="M1551.4,419H15.4"/>
		<path class="st1" d="M713.6,418.9c0-13.3,10.7-24,24-24s24,10.7,24,24l0,0"/>
		<path class="st1" d="M48,418.9c0-13.3,10.7-24,24-24s24,10.7,24,24l0,0"/>
		<path class="st1" d="M143.1,418.9c0-13.3,10.7-24,24-24s24,10.7,24,24l0,0"/>
		<path class="st1" d="M238.2,418.9c0-13.3,10.7-24,24-24c13.3,0,24,10.7,24,24l0,0"/>
		<path class="st1" d="M333.3,418.9c0-13.3,10.7-24,24-24s24,10.7,24,24l0,0"/>
		<path class="st1" d="M428.3,418.9c0-13.3,10.7-24,24-24s24,10.7,24,24l0,0"/>
		<path class="st1" d="M523.4,418.9c0-13.3,10.7-24,24-24s24,10.7,24,24l0,0"/>
		<path class="st1" d="M618.5,418.9c0-13.3,10.7-24,24-24s24,10.7,24,24l0,0"/>
		<path class="st1" d="M15.4,378.8h1536"/>
		<path class="st1" d="M853.2,418.9c0-13.3-10.7-24-24-24s-24,10.7-24,24l0,0"/>
		<path class="st1" d="M1518.7,418.9c0-13.3-10.7-24-24-24s-24,10.7-24,24l0,0"/>
		<path class="st1" d="M1423.6,418.9c0-13.3-10.7-24-24-24s-24,10.7-24,24l0,0"/>
		<path class="st1" d="M1328.5,418.9c0-13.3-10.7-24-24-24s-24,10.7-24,24l0,0"/>
		<path class="st1" d="M1233.5,418.9c0-13.3-10.7-24-24-24s-24,10.7-24,24l0,0"/>
		<path class="st1" d="M1138.4,418.9c0-13.3-10.7-24-24-24s-24,10.7-24,24l0,0"/>
		<path class="st1" d="M1043.3,418.9c0-13.3-10.7-24-24-24c-13.3,0-24,10.7-24,24l0,0"/>
		<path class="st1" d="M948.2,418.9c0-13.3-10.7-24-24-24s-24,10.7-24,24l0,0"/>
		<path class="st2" d="M1550.4,369.2v67.5H16.4v-67.5H1550.4z M1551.4,368.2H15.4v69.5h1536V368.2z"/>
		<g>
			<path class="st1" d="M1535.8,298.7h-135.5h-85.6v17.5v52.1"/>
			<path class="st1" d="M1381.3,298.7V149.7h154.5"/>
			<path class="st1" d="M1458.5,150.2V28.8h77.3v339.5"/>
			<path class="st1" d="M1410.3,150.2v146.2"/>
			<path class="st1" d="M1442,150.2v146.2"/>
			<path class="st1" d="M1473.7,150.2v146.2"/>
			<path class="st1" d="M1505.4,150.2v146.2"/>
			<path class="st1" d="M1381.6,270.9h155.7"/>
			<path class="st1" d="M1381.6,239.2h155.7"/>
			<path class="st1" d="M1381.6,207.5h155.7"/>
			<path class="st1" d="M1381.6,175.8h155.7"/>
			<path class="st1" d="M1458.5,45.5h77.3"/>
			<path class="st1" d="M1458.5,58.2h77.3"/>
			<path class="st1" d="M1458.5,108.9h77.3"/>
			<path class="st1" d="M1458.5,121.6h77.3"/>
			<path class="st1" d="M1458.5,77.2h77.3"/>
			<path class="st1" d="M1458.5,89.9h77.3"/>
			<path class="st1" d="M1473.7,45.5v12.7"/>
			<path class="st1" d="M1492.7,108.9v12.7"/>
			<path class="st1" d="M1508.5,77.2v12.7"/>
			<path class="st1" d="M1514.9,28.8V13.4"/>
			<path class="st1" d="M1332.1,368.2v-50.7h203.7"/>
			<path class="st1" d="M1348,368.2l34.2-34.2h153.6"/>
			<path class="st1" d="M1376.5,368.2l18.3-18.4h140.9"/>
			<path class="st1" d="M1410.3,349.9v18.4"/>
			<path class="st1" d="M1442,349.9v18.4"/>
			<path class="st1" d="M1473.7,349.9v18.4"/>
			<path class="st1" d="M1505.4,349.9v18.4"/>
			<path class="st1" d="M290.2,366.9v-174l-54-56l-56.8,56v36.1v8.7v6v11.6v4v4.5v103.2"/>
			<path class="st1" d="M290.2,192.9H179.4"/>
			<path class="st1" d="M280.2,192.9L235,147.7l-45.5,45.5"/>
			<path class="st1" d="M195.8,186.9h78.4"/>
			<path class="st1" d="M224.5,166.1h22.6v15.4h-22.6V166.1z"/>
			<path class="st1" d="M201.1,211.1h16.4v35.4h-16.4V211.1z"/>
			<path class="st1" d="M201.1,228.8h16.4"/>
			<path class="st1" d="M232.8,211.1h48.1v35.4h-48.1V211.1z"/>
			<path class="st1" d="M243.6,211.1v35.4"/>
			<path class="st1" d="M269,211.1v35.4"/>
			<path class="st1" d="M232.8,265h48.1v35.4h-48.1V265z"/>
			<path class="st1" d="M243.6,265v35.4"/>
			<path class="st1" d="M269,265v35.4"/>
			<path class="st1" d="M232.8,318.9h48.1v35.4h-48.1V318.9z"/>
			<path class="st1" d="M243.6,318.9v35.4"/>
			<path class="st1" d="M269,318.9v35.4"/>
			<path class="st1" d="M220.4,366.9v-84.2c0,0,1.7-14.1-14.1-14.1"/>
			<path class="st1" d="M193.7,366.9v-84.2c0,0-1.7-14.1,14.1-14.1"/>
			<path class="st1" d="M193.6,359.7h26.8"/>
			<path class="st1" d="M193.6,353.3h26.8"/>
			<path class="st1" d="M193.6,347h26.8"/>
			<path class="st1" d="M193.6,340.6h26.8"/>
			<path class="st1" d="M193.6,334.3h26.8"/>
			<path class="st1" d="M193.6,328h26.8"/>
			<path class="st1" d="M193.6,321.6h26.8"/>
			<path class="st1" d="M193.6,315.3h26.8"/>
			<path class="st1" d="M214.6,297.9v4.8"/>
			<path class="st1" d="M257.8,159.2v-12.5h-5.9v6.3"/>
			<path class="st1" d="M164,366.6V161l-11-11.4l-20.2-20.9l-32.6-33.8L33.1,161v205.6"/>
			<path class="st1" d="M33.1,161h12.3h87.5h19.3h0.8h11"/>
			<path class="st1" d="M45,161.3l0.3-0.3l7.1-7.1l46.4-46.3l34.1,34.1l12.3,12.3l7.1,7.1"/>
			<path class="st1" d="M52.4,153.9h80.4h12.3"/>
			<path class="st1" d="M86.4,129.4h26.7v18.3H86.4V129.4z"/>
			<path class="st1" d="M58.7,182.5H78v41.8H58.7V182.5z"/>
			<path class="st1" d="M58.7,203.4H78"/>
			<path class="st1" d="M96.2,182.5H153v41.8H96.2L96.2,182.5z"/>
			<path class="st1" d="M108.9,182.5v41.8"/>
			<path class="st1" d="M138.9,182.5v41.8"/>
			<path class="st1" d="M81.5,366.6v-99.5c0,0,2-16.6-16.6-16.6"/>
			<path class="st1" d="M49.9,366.6v-99.5c0,0-2-16.6,16.6-16.6"/>
			<path class="st1" d="M49.9,358.1h31.7"/>
			<path class="st1" d="M49.9,350.6h31.7"/>
			<path class="st1" d="M49.9,343.1h31.7"/>
			<path class="st1" d="M49.9,335.6h31.7"/>
			<path class="st1" d="M49.9,328.1h31.7"/>
			<path class="st1" d="M49.9,320.6h31.7"/>
			<path class="st1" d="M49.9,313.2h31.7"/>
			<path class="st1" d="M49.9,305.7h31.7"/>
			<path class="st1" d="M125.7,121.2v-14.8h-7v7.4"/>
			<path class="st1" d="M100.2,94.8V81.4"/>
			<path class="st1" d="M96.7,245.9h19.3v41.8H96.7V245.9z"/>
			<path class="st1" d="M96.7,266.8h19.3"/>
			<path class="st1" d="M134.8,245.9h19.4v41.8h-19.4V245.9z"/>
			<path class="st1" d="M134.8,266.8h19.4"/>
			<circle class="st1" cx="65.1" cy="274.7" r="11"/>
			<path class="st1" d="M96.7,309.3h19.3v41.8H96.7V309.3z"/>
			<path class="st1" d="M96.7,330.2h19.3"/>
			<path class="st1" d="M134.8,309.3h19.4v41.8h-19.4V309.3z"/>
			<path class="st1" d="M134.8,330.2h19.4"/>
			<path class="st1" d="M389,366.6V161l-21.5-22.3l-16.9-17.5l-25.5-26.4L258.1,161"/>
			<path class="st1" d="M258.1,161h12.3h106.8H389"/>
			<path class="st1" d="M270,161.3l0.3-0.3l7.1-7.1l46.4-46.3l46.3,46.3l7.1,7.1"/>
			<path class="st1" d="M277.4,153.9h92.7"/>
			<path class="st1" d="M311.4,129.4h26.7v18.3h-26.7V129.4z"/>
			<path class="st1" d="M321.2,182.5H378v41.8h-56.8V182.5z"/>
			<path class="st1" d="M334,182.5v41.8"/>
			<path class="st1" d="M363.9,182.5v41.8"/>
			<path class="st1" d="M350.7,121.2v-14.8h-7v7.4"/>
			<path class="st1" d="M321.7,245.9h19.4v41.8h-19.4V245.9z"/>
			<path class="st1" d="M321.7,266.8h19.4"/>
			<path class="st1" d="M359.8,245.9h19.4v41.8h-19.4V245.9z"/>
			<path class="st1" d="M359.8,266.8h19.4"/>
			<path class="st1" d="M321.7,309.3h19.4v41.8h-19.4V309.3z"/>
			<path class="st1" d="M321.7,330.2h19.4"/>
			<path class="st1" d="M359.8,309.3h19.4v41.8h-19.4V309.3z"/>
			<path class="st1" d="M359.8,330.2h19.4"/>
			<path class="st1" d="M531.1,366.9v-174l-54-56l-49.9,49.3l-5.6,5.5l-1.3,1.2v16.2v5.9v151.8"/>
			<path class="st1" d="M531.1,192.9H420.3"/>
			<path class="st1" d="M430.4,193.2l24.9-24.8l20.2-20.2l0.5-0.5l45.2,45.2"/>
			<path class="st1" d="M436.6,186.9h78.4"/>
			<path class="st1" d="M465.4,166.1H488v15.5h-22.6V166.1z"/>
			<path class="st1" d="M442,211.1h16.4v35.4H442V211.1z"/>
			<path class="st1" d="M442,228.8h16.4"/>
			<path class="st1" d="M473.6,211.1h48.1v35.4h-48.1V211.1z"/>
			<path class="st1" d="M484.5,211.1v35.4"/>
			<path class="st1" d="M509.8,211.1v35.4"/>
			<path class="st1" d="M473.6,265h48.1v35.4h-48.1V265z"/>
			<path class="st1" d="M484.5,265v35.4"/>
			<path class="st1" d="M509.8,265v35.4"/>
			<path class="st1" d="M473.6,318.9h48.1v35.4h-48.1V318.9z"/>
			<path class="st1" d="M484.5,318.9v35.4"/>
			<path class="st1" d="M509.8,318.9v35.4"/>
			<path class="st1" d="M461.2,366.9v-84.2c0,0,1.7-14.1-14.1-14.1"/>
			<path class="st1" d="M434.5,366.9v-84.2c0,0-1.7-14.1,14.1-14.1"/>
			<path class="st1" d="M434.5,359.7h26.8"/>
			<path class="st1" d="M434.5,353.3h26.8"/>
			<path class="st1" d="M434.5,347h26.8"/>
			<path class="st1" d="M434.5,340.6h26.8"/>
			<path class="st1" d="M434.5,334.3h26.8"/>
			<path class="st1" d="M434.5,328h26.8"/>
			<path class="st1" d="M434.5,321.6h26.8"/>
			<path class="st1" d="M434.5,315.3h26.8"/>
			<path class="st1" d="M455.5,297.9v4.8"/>
			<path class="st1" d="M498.6,159.2v-12.5h-5.9v6.3"/>
			<path class="st1" d="M343.7,110.2H340"/>
			<path class="st1" d="M475.4,148.2l-20.1,20.2"/>
			<path class="st1" d="M475.4,166.1h-10v10.4"/>
			<path class="st1" d="M646.5,368.2v-24.8H720"/>
			<path class="st1" d="M646.5,350.1H720"/>
			<path class="st1" d="M736,368.2v-24.8h-16"/>
			<path class="st1" d="M736,350.1h-16"/>
			<path class="st3" d="M445.9,68.4h-11"/>
			<path class="st3" d="M527.5,68.4h-9.6"/>
			<path class="st3" d="M558.3,68.4h-22.6"/>
			<path class="st3" d="M424.3,68.4h-42.8c-3.2-4.1-2.5-10,1.6-13.2c1.7-1.3,3.7-2,5.8-2c0.9,0,1.8,0.1,2.7,0.4
				c1.5-7.6,8.8-12.6,16.5-11.2c3.2,0.6,6,2.3,8.1,4.7c4.2-1.6,8.9-0.8,12.4,1.9c2-10.5,11.2-18.1,21.9-18.1c4.3,0,8.4,1.2,12,3.5
				c2.5-20,20.7-34.2,40.7-31.8c14.4,1.8,26.4,11.9,30.5,25.8c9.8-7.2,23.6-5.1,30.8,4.7c3.8,5.2,5.2,11.7,3.7,18c1-0.3,2-0.4,3-0.4
				c2.6,0,5,0.9,7,2.6c0.6-7.7,7.3-13.4,14.9-12.8c7.3,0.6,12.9,6.6,12.9,13.9c0,0.6,0,1.3-0.2,1.9c0.6-0.1,1.2-0.2,1.8-0.2
				c5.3,0,9.6,4.3,9.6,9.6c0,0.9-0.1,1.7-0.3,2.6h-48"/>
			<path class="st3" d="M169.1,109.8h-13.8c-0.6-1.2-0.9-2.6-0.9-4c0-5.2,4.2-9.3,9.3-9.3c1,0,2,0.2,2.9,0.5"/>
			<path class="st3" d="M166.7,96.9c1.6-7.8,8.5-13.3,16.4-13.3c0.7,0,1.5,0,2.2,0.1"/>
			<path class="st3" d="M185.3,83.7c3.2-13,16.3-20.9,29.3-17.7c8.9,2.2,15.8,9.3,17.8,18.2"/>
			<path class="st3" d="M232.4,84.3c8-5,18.6-2.5,23.6,5.5c1.4,2.2,2.3,4.8,2.5,7.4"/>
			<path class="st3" d="M258.6,97.2c1.2-0.5,2.4-0.8,3.7-0.8c5.4,0,9.7,4.3,9.7,9.7l0,0c0,1.3-0.2,2.5-0.7,3.7h-16.6"/>
			<path class="st3" d="M155.3,109.8h24"/>
			<path class="st3" d="M234.5,109.8H245"/>
			<path class="st1" d="M1009.3,366.9v-174l54-56l56.8,56v36.1v8.7v6v11.6v4v4.5v103.2"/>
			<path class="st1" d="M1009.3,192.9h110.8"/>
			<path class="st1" d="M1019.3,192.9l45.2-45.2l45.4,45.5"/>
			<path class="st1" d="M1103.7,186.9h-78.4"/>
			<path class="st1" d="M1075,181.6h-22.6v-15.4h22.6V181.6z"/>
			<path class="st1" d="M1098.4,246.5h-16.4v-35.4h16.4V246.5z"/>
			<path class="st1" d="M1098.4,228.8H1082"/>
			<path class="st1" d="M1066.7,246.5h-48.1v-35.4h48.1V246.5z"/>
			<path class="st1" d="M1055.9,211.1v35.4"/>
			<path class="st1" d="M1030.6,211.1v35.4"/>
			<path class="st1" d="M1066.7,300.4h-48.1V265h48.1V300.4z"/>
			<path class="st1" d="M1055.9,265v35.4"/>
			<path class="st1" d="M1030.6,265v35.4"/>
			<path class="st1" d="M1066.7,354.2h-48.1v-35.4h48.1V354.2z"/>
			<path class="st1" d="M1055.9,318.9v35.4"/>
			<path class="st1" d="M1030.6,318.9v35.4"/>
			<path class="st1" d="M1079.2,366.9v-84.2c0,0-1.7-14.1,14.1-14.1"/>
			<path class="st1" d="M1105.8,366.9v-84.2c0,0,1.7-14.1-14.1-14.1"/>
			<path class="st1" d="M1105.9,359.7h-26.8"/>
			<path class="st1" d="M1105.9,353.3h-26.8"/>
			<path class="st1" d="M1105.9,347h-26.8"/>
			<path class="st1" d="M1105.9,340.6h-26.8"/>
			<path class="st1" d="M1105.9,334.3h-26.8"/>
			<path class="st1" d="M1105.9,328h-26.8"/>
			<path class="st1" d="M1105.9,321.6h-26.8"/>
			<path class="st1" d="M1105.9,315.3h-26.8"/>
			<path class="st1" d="M1084.9,297.9v4.8"/>
			<path class="st1" d="M1041.8,159.2v-12.5h5.9v6.3"/>
			<path class="st1" d="M1135.5,366.6V161l11-11.4l20.2-20.9l32.6-33.8l67.1,66.2v205.6"/>
			<path class="st1" d="M1266.4,161h-12.3h-87.5h-19.3h-0.8h-11"/>
			<path class="st1" d="M1254.5,161.3l-0.3-0.3l-7.1-7.1l-46.4-46.3l-34.1,34.1l-12.3,12.3l-7.1,7.1"/>
			<path class="st1" d="M1247.1,153.9h-80.4h-12.3"/>
			<path class="st1" d="M1213.1,147.7h-26.7v-18.3h26.7V147.7z"/>
			<path class="st1" d="M1240.8,224.4h-19.3v-41.8h19.3V224.4z"/>
			<path class="st1" d="M1240.8,203.4h-19.3"/>
			<path class="st1" d="M1203.4,224.4h-56.8v-41.8h56.8V224.4z"/>
			<path class="st1" d="M1190.6,182.5v41.8"/>
			<path class="st1" d="M1160.6,182.5v41.8"/>
			<path class="st1" d="M1218.1,366.6v-99.5c0,0-2-16.6,16.6-16.6"/>
			<path class="st1" d="M1249.6,366.6v-99.5c0,0,2-16.6-16.6-16.6"/>
			<path class="st1" d="M1249.7,358.1H1218"/>
			<path class="st1" d="M1249.7,350.6H1218"/>
			<path class="st1" d="M1249.7,343.1H1218"/>
			<path class="st1" d="M1249.7,335.6H1218"/>
			<path class="st1" d="M1249.7,328.1H1218"/>
			<path class="st1" d="M1249.7,320.6H1218"/>
			<path class="st1" d="M1249.7,313.2H1218"/>
			<path class="st1" d="M1249.7,305.7H1218"/>
			<path class="st1" d="M1173.9,121.2v-14.8h7v7.4"/>
			<path class="st1" d="M1199.3,94.8V81.4"/>
			<path class="st1" d="M1202.8,287.7h-19.3v-41.8h19.3V287.7z"/>
			<path class="st1" d="M1202.8,266.8h-19.3"/>
			<path class="st1" d="M1164.8,287.7h-19.3v-41.8h19.3V287.7z"/>
			<path class="st1" d="M1164.8,266.8h-19.3"/>
			<circle class="st1" cx="1234.4" cy="274.7" r="11"/>
			<path class="st1" d="M1202.8,351.1h-19.3v-41.8h19.3V351.1z"/>
			<path class="st1" d="M1202.8,330.2h-19.3"/>
			<path class="st1" d="M1164.8,351.1h-19.3v-41.8h19.3V351.1z"/>
			<path class="st1" d="M1164.8,330.2h-19.3"/>
			<path class="st1" d="M910.5,366.6V161l21.5-22.3l16.9-17.5l25.5-26.4l67.1,66.2"/>
			<path class="st1" d="M1041.4,161h-12.3H922.3h-11.8"/>
			<path class="st1" d="M1029.5,161.3l-0.3-0.3l-7.1-7.1l-46.4-46.3l-46.3,46.3l-7.1,7.1"/>
			<path class="st1" d="M1022.1,153.9h-92.7"/>
			<path class="st1" d="M988.1,147.7h-26.7v-18.3h26.7V147.7z"/>
			<path class="st1" d="M978.4,224.4h-56.8v-41.8h56.8V224.4z"/>
			<path class="st1" d="M965.6,182.5v41.8"/>
			<path class="st1" d="M935.6,182.5v41.8"/>
			<path class="st1" d="M948.8,121.2v-14.8h7v7.4"/>
			<path class="st1" d="M977.8,287.7h-19.3v-41.8h19.3V287.7z"/>
			<path class="st1" d="M977.8,266.8h-19.4"/>
			<path class="st1" d="M939.8,287.7h-19.3v-41.8h19.3V287.7z"/>
			<path class="st1" d="M939.8,266.8h-19.4"/>
			<path class="st1" d="M977.8,351.1h-19.3v-41.8h19.3V351.1z"/>
			<path class="st1" d="M977.8,330.2h-19.4"/>
			<path class="st1" d="M939.8,351.1h-19.3v-41.8h19.3V351.1z"/>
			<path class="st1" d="M939.8,330.2h-19.4"/>
			<path class="st1" d="M768.4,366.9v-174l54-56l49.9,49.3l5.6,5.5l1.3,1.2v16.2v5.9v151.8"/>
			<path class="st1" d="M768.4,192.9h110.8"/>
			<path class="st1" d="M869.1,193.2l-24.8-24.8l-20.2-20.2l-0.5-0.5l-45.2,45.2"/>
			<path class="st1" d="M862.9,186.9h-78.4"/>
			<path class="st1" d="M811.5,166.1h22.6v15.5h-22.6V166.1z"/>
			<path class="st1" d="M857.6,246.5h-16.4v-35.4h16.4V246.5z"/>
			<path class="st1" d="M857.6,228.8h-16.4"/>
			<path class="st1" d="M825.9,246.5h-48.1v-35.4h48.1V246.5z"/>
			<path class="st1" d="M815,211.1v35.4"/>
			<path class="st1" d="M789.7,211.1v35.4"/>
			<path class="st1" d="M825.9,300.4h-48.1V265h48.1V300.4z"/>
			<path class="st1" d="M815,265v35.4"/>
			<path class="st1" d="M789.7,265v35.4"/>
			<path class="st1" d="M825.9,354.2h-48.1v-35.4h48.1V354.2z"/>
			<path class="st1" d="M815,318.9v35.4"/>
			<path class="st1" d="M789.7,318.9v35.4"/>
			<path class="st1" d="M838.3,366.9v-84.2c0,0-1.7-14.1,14.1-14.1"/>
			<path class="st1" d="M865,366.9v-84.2c0,0,1.7-14.1-14.1-14.1"/>
			<path class="st1" d="M865,359.7h-26.8"/>
			<path class="st1" d="M865,353.3h-26.8"/>
			<path class="st1" d="M865,347h-26.8"/>
			<path class="st1" d="M865,340.6h-26.8"/>
			<path class="st1" d="M865,334.3h-26.8"/>
			<path class="st1" d="M865,328h-26.8"/>
			<path class="st1" d="M865,321.6h-26.8"/>
			<path class="st1" d="M865,315.3h-26.8"/>
			<path class="st1" d="M844,297.9v4.8"/>
			<path class="st1" d="M800.9,159.2v-12.5h5.9v6.3"/>
			<path class="st1" d="M955.8,110.2h3.7"/>
			<path class="st1" d="M824.1,148.2l20.2,20.2"/>
			<path class="st1" d="M824.1,166.1h10v10.4"/>
			<path class="st1" d="M616.6,316v51.5"/>
			<path class="st1" d="M610.4,367.5V316"/>
			<path class="st1" d="M616.6,335.2l17-13.4"/>
			<circle class="st3" cx="613.4" cy="290.5" r="24.6"/>
			<path class="st3" d="M595.5,290.5c0-9.9,8-17.9,17.9-17.9l0,0"/>
			<path class="st1" d="M563.1,347.5v21.9"/>
			<path class="st1" d="M568.6,369.4v-21.9"/>
			<path class="st1" d="M563.1,357.8l-6.8-5.4"/>
			<path class="st1" d="M546.6,347.2l16.3-18.2h-13.6l13.6-15.2h-10.2l13.7-15.3l13.7,15.3h-10.2l13.6,15.2h-13.6l16.3,18.2H546.6z"
				/>
			<path class="st3" d="M1297,97.6h-13.8c-0.6-1.2-0.9-2.6-0.9-4c0-5.2,4.2-9.3,9.3-9.3c1,0,2,0.2,2.9,0.5"/>
			<path class="st3" d="M1294.5,84.7c1.6-7.8,8.5-13.3,16.4-13.3c0.7,0,1.5,0,2.2,0.1"/>
			<path class="st3" d="M1313.1,71.6c3.2-13,16.3-20.9,29.3-17.7c8.9,2.2,15.8,9.3,17.8,18.2"/>
			<path class="st3" d="M1360.3,72.1c8-5,18.6-2.5,23.6,5.5c1.4,2.2,2.3,4.8,2.5,7.4"/>
			<path class="st3" d="M1386.4,85c1.2-0.5,2.4-0.8,3.7-0.8c5.4,0,9.7,4.3,9.7,9.7c0,0,0,0,0,0c0,1.3-0.2,2.5-0.7,3.7h-16.6"/>
			<path class="st3" d="M1283.2,97.6h24"/>
			<path class="st3" d="M1362.3,97.6h10.6"/>
			<path class="st3" d="M637.6,168.7h-13.8c-0.6-1.2-0.9-2.6-0.9-4c0-5.2,4.2-9.3,9.3-9.3c1,0,2,0.2,2.9,0.5"/>
			<path class="st3" d="M635.2,155.8c1.6-7.8,8.5-13.3,16.4-13.3c0.7,0,1.5,0,2.2,0.1"/>
			<path class="st3" d="M653.8,142.7c3.2-13,16.3-20.9,29.3-17.7c8.9,2.2,15.8,9.3,17.8,18.2"/>
			<path class="st3" d="M700.9,143.2c8-5,18.6-2.5,23.6,5.5c1.4,2.2,2.2,4.8,2.5,7.4"/>
			<path class="st3" d="M727,156.1c1.2-0.5,2.4-0.8,3.7-0.8c5.4,0,9.7,4.3,9.7,9.7l0,0c0,1.3-0.2,2.5-0.7,3.7h-16.5"/>
			<path class="st3" d="M623.8,168.7h24"/>
			<path class="st3" d="M703,168.7h10.6"/>
		</g>
	</g>
</g>
</svg>
