<?xml version="1.0" encoding="utf-8"?>
<!-- Generator: Adobe Illustrator 19.2.0, SVG Export Plug-In . SVG Version: 6.00 Build 0)  -->
<svg version="1.1" id="Слой_1" xmlns="http://www.w3.org/2000/svg" xmlns:xlink="http://www.w3.org/1999/xlink" x="0px" y="0px"
	 viewBox="0 0 166.4 79" style="enable-background:new 0 0 166.4 79;" xml:space="preserve">
<style type="text/css">
	.st0{fill:none;stroke:#2C4C61;stroke-linejoin:round;}
	.st1{fill:#FFFFFF;}
	.st2{fill:#2C4C61;}
</style>
<path class="st0" d="M19.2,49.8H0"/>
<path class="st0" d="M166.4,49.8h-19.2"/>
<circle class="st1" cx="83.2" cy="49.8" r="64"/>
<g>
	<path class="st2" d="M40,25.2c-3.4,0-6.1-2.7-6.1-6.1c0-3.4,2.7-6.1,6.1-6.1c0.8,0,1.5,0.1,2.2,0.4c2-4,6.9-5.6,10.9-3.6
		c2.2,1.1,3.7,3.1,4.3,5.5c0.2,0,0.5-0.1,0.7-0.1c2.1,0,3.9,1.5,4.3,3.6c1.6,0.7,2.3,2.6,1.5,4.2c-0.5,1.1-1.6,1.8-2.8,1.8L40,25.2z
		 M40,15.2c-2.1,0-3.9,1.7-3.9,3.9c0,2.1,1.7,3.9,3.9,3.9l0,0l21-0.4c0.5-0.1,0.9-0.5,0.8-1c0-0.4-0.3-0.7-0.7-0.8
		c-0.6-0.1-1-0.6-1-1.2v-0.1c0-1.1-0.9-2-2-2c-0.4,0-0.8,0.1-1.1,0.3c-0.5,0.3-1.2,0.2-1.5-0.3c-0.1-0.2-0.2-0.4-0.2-0.6
		c-0.1-3.3-2.8-5.8-6.1-5.7c-2.5,0.1-4.7,1.7-5.4,4.1c-0.2,0.6-0.8,0.9-1.4,0.7c-0.1,0-0.2-0.1-0.3-0.1C41.5,15.5,40.8,15.3,40,15.2
		L40,15.2z"/>
	<path class="st2" d="M102.5,16.3c-3.4,0-6.1-2.7-6.1-6.1s2.7-6.1,6.1-6.1c0.8,0,1.5,0.1,2.2,0.4c2-4,6.9-5.6,10.9-3.6
		c2.2,1.1,3.7,3.1,4.3,5.5c0.2,0,0.5-0.1,0.7-0.1c2.1,0,3.9,1.5,4.2,3.5c1.6,0.7,2.3,2.6,1.5,4.2c-0.5,1.1-1.6,1.8-2.8,1.8
		L102.5,16.3z M102.5,6.3c-2.1,0-3.9,1.7-3.9,3.9s1.7,3.9,3.9,3.9l21-0.4c0.5,0,0.9-0.5,0.9-1c0-0.4-0.4-0.8-0.8-0.9
		c-0.6-0.1-1-0.6-1-1.2v-0.1c0-1.1-0.9-2-2-2c-0.4,0-0.8,0.1-1.1,0.3C119,9.1,118.3,9,118,8.5c-0.1-0.2-0.2-0.4-0.2-0.6
		c-0.1-3.3-2.8-5.8-6.1-5.7c-2.5,0.1-4.7,1.7-5.4,4.1c-0.2,0.6-0.8,0.9-1.4,0.7c-0.1,0-0.2-0.1-0.3-0.1C104,6.5,103.2,6.3,102.5,6.3
		L102.5,6.3z"/>
	<path class="st2" d="M51.5,78.9c-0.6,0-1.1-0.5-1.1-1.1c0,0,0,0,0,0l-0.3-32.9c0-0.3,0.1-0.6,0.3-0.8l21.8-22.7
		c0.2-0.2,0.5-0.3,0.8-0.3c0.3,0,0.6,0.1,0.8,0.3l21.8,22.2c0.2,0.2,0.3,0.5,0.3,0.8l0.3,32.9c0,0.6-0.5,1.1-1.1,1.1c0,0,0,0,0,0
		L51.5,78.9L51.5,78.9z M52.4,45.4l0.3,31.3L94,76.2L93.8,45L73.1,23.8L52.4,45.4z"/>
	<path class="st2" d="M121.5,45.6H94.9c-0.6,0-1.1-0.5-1.1-1.1s0.5-1.1,1.1-1.1h23.9l-19.7-20H73c-0.6,0-1.1-0.5-1.1-1.1
		s0.5-1.1,1.1-1.1l0,0h26.6c0.3,0,0.6,0.1,0.8,0.3l21.9,22.2c0.4,0.4,0.4,1.1,0,1.6C122,45.5,121.8,45.6,121.5,45.6L121.5,45.6z"/>
	<path class="st2" d="M95.1,78.8c-0.6,0-1.1-0.5-1.1-1.1s0.5-1.1,1.1-1.1l25.4-0.3l-0.3-31.3L98.8,23c-0.4-0.4-0.4-1.2,0-1.6
		s1.2-0.4,1.6,0l0,0l21.8,22.2c0.2,0.2,0.3,0.5,0.3,0.8l0.3,32.9c0,0.6-0.5,1.1-1.1,1.1c0,0,0,0,0,0L95.1,78.8L95.1,78.8z"/>
	<path class="st2" d="M74.8,78.7h-9c-0.6,0-1.1-0.5-1.1-1.1c0,0,0,0,0,0V62.9c0-0.6,0.5-1.1,1.1-1.1c0,0,0,0,0,0h9
		c0.6,0,1.1,0.5,1.1,1.1c0,0,0,0,0,0v14.6C76,78.2,75.5,78.7,74.8,78.7C74.9,78.7,74.9,78.7,74.8,78.7z M67,76.4h6.7V64.1H67V76.4z"
		/>
	<path class="st2" d="M83.8,55.6h-9c-0.6,0-1.1-0.5-1.1-1.1c0,0,0,0,0,0v-9c0-0.6,0.5-1.1,1.1-1.1l0,0h9c0.6,0,1.1,0.5,1.2,1.1
		c0,0,0,0,0,0.1v9C85,55.2,84.5,55.7,83.8,55.6C83.9,55.7,83.8,55.7,83.8,55.6z M76,53.4h6.7v-6.7H76V53.4z"/>
	<path class="st2" d="M79.3,55.6c-0.6,0-1.1-0.5-1.1-1.1c0,0,0,0,0,0v-9c0-0.6,0.5-1.1,1.1-1.1s1.1,0.5,1.1,1.1l0,0v9
		C80.5,55.1,80,55.6,79.3,55.6C79.3,55.6,79.3,55.6,79.3,55.6z"/>
	<path class="st2" d="M67,55.6h-9c-0.6,0-1.1-0.5-1.1-1.1l0,0v-9c0-0.6,0.5-1.1,1.1-1.1h9c0.6,0,1.1,0.5,1.1,1.1l0,0v9
		C68.1,55.2,67.6,55.6,67,55.6z M59.1,53.4h6.7v-6.7h-6.8L59.1,53.4z"/>
	<path class="st2" d="M62.5,55.6c-0.6,0-1.1-0.5-1.1-1.1l0,0v-9c0-0.6,0.5-1.1,1.1-1.1s1.1,0.5,1.1,1.1l0,0v9
		C63.6,55.1,63.1,55.6,62.5,55.6C62.5,55.6,62.5,55.6,62.5,55.6z"/>
	<circle class="st2" cx="71.8" cy="71.1" r="1.1"/>
	<path class="st2" d="M117,57.6h-6.1c-0.6,0-1.1-0.5-1.1-1.1c0,0,0,0,0,0v-6.1c0-0.6,0.5-1.1,1.1-1.1l0,0h6.1c0.6,0,1.1,0.5,1.1,1.1
		l0,0v6.1C118.1,57,117.6,57.6,117,57.6C117,57.6,117,57.6,117,57.6z M112,55.3h3.8v-3.8H112V55.3z"/>
	<path class="st2" d="M105.6,57.6h-6.1c-0.6,0-1.1-0.5-1.1-1.1c0,0,0,0,0,0v-6.1c0-0.6,0.5-1.1,1.1-1.1l0,0h6.1
		c0.6,0,1.1,0.5,1.1,1.1l0,0v6.1C106.7,57,106.2,57.6,105.6,57.6C105.6,57.6,105.6,57.6,105.6,57.6z M100.7,55.3h3.8v-3.8h-3.8V55.3
		z"/>
	<path class="st2" d="M131.2,76.8H41.6c-0.6-0.1-1.2,0.3-1.3,0.9c-0.1,0.6,0.3,1.2,0.9,1.3c0.1,0,0.2,0,0.4,0h89.6
		c0.6,0.1,1.2-0.3,1.3-0.9c0.1-0.6-0.3-1.2-0.9-1.3C131.4,76.8,131.3,76.8,131.2,76.8z"/>
</g>
</svg>
