<?xml version="1.0" encoding="utf-8"?>
<!-- Generator: Adobe Illustrator 19.2.0, SVG Export Plug-In . SVG Version: 6.00 Build 0)  -->
<svg version="1.1" id="Слой_1" xmlns="http://www.w3.org/2000/svg" xmlns:xlink="http://www.w3.org/1999/xlink" x="0px" y="0px"
	 viewBox="0 0 359.6 230.4" style="enable-background:new 0 0 359.6 230.4;" xml:space="preserve">
<style type="text/css">
	.st0{fill:#FFFFFF;}
	.st1{fill:#36B5C2;}
	.st2{fill:none;}
	.st3{fill:#EBF6F4;}
	.st4{clip-path:url(#SVGID_2_);}
	.st5{fill:#D0EBE5;}
	.st6{fill:#B7E1D8;}
	.st7{clip-path:url(#SVGID_2_);fill:#D0EBE5;}
	.st8{clip-path:url(#SVGID_2_);fill:#FFFFFF;}
	.st9{clip-path:url(#SVGID_2_);fill:#B7E1D8;}
	.st10{fill:#DFE4E7;}
	.st11{fill:#C0C8CE;}
	.st12{fill:url(#SVGID_3_);}
	.st13{opacity:0.2;fill:#2D1D11;enable-background:new    ;}
	.st14{fill:#562615;}
	.st15{fill:url(#SVGID_4_);}
	.st16{fill:url(#SVGID_5_);}
	.st17{fill:url(#SVGID_6_);}
	.st18{fill:url(#SVGID_7_);}
	.st19{fill:url(#SVGID_8_);}
	.st20{fill:url(#SVGID_9_);}
	.st21{opacity:0.3;fill:#2D1D11;enable-background:new    ;}
	.st22{fill:url(#SVGID_10_);}
	.st23{fill:#4A4C58;}
	.st24{fill:#1D3A82;}
	.st25{opacity:0.4;fill:#2C4C61;enable-background:new    ;}
	.st26{fill:url(#SVGID_11_);}
	.st27{fill:#D66C54;}
	.st28{fill:#F4A66C;}
	.st29{fill:url(#SVGID_12_);}
	.st30{opacity:0.3;fill:#D37222;enable-background:new    ;}
	.st31{fill:url(#SVGID_13_);}
	.st32{opacity:0.46;}
	.st33{clip-path:url(#SVGID_15_);}
	.st34{fill:none;stroke:#2C4C61;stroke-miterlimit:10;}
	.st35{fill:none;stroke:#2C4C61;stroke-linecap:round;stroke-linejoin:round;}
	.st36{opacity:0.45;fill:none;stroke:#2C4C61;stroke-linecap:round;stroke-linejoin:round;}
</style>
<path class="st0" d="M-362.8,0H-7.6v230.4h-355.2V0z"/>
<path class="st1" d="M-362.8,0h748.8v230.4h-748.8V0z"/>
<polygon class="st2" points="386,190.7 201.8,190.7 201.8,0 385.9,0 "/>
<g>
	<path class="st3" d="M328.3-15.5l24.2-17.7c19.4-14.2,46.6,0,46.1,24l-0.7,30c-0.2,9.5,4.3,18.6,12,24.2l24.3,17.6
		c19.5,14.1,14.4,44.3-8.6,51.3l-28.8,8.6c-9.1,2.7-16.3,9.8-19.3,18.9l-9.2,28.6c-7.3,22.9-37.7,27.4-51.4,7.6l-17.1-24.7
		c-5.4-7.8-14.4-12.5-23.9-12.5l-30,0.1c-24,0.1-37.7-27.4-23.1-46.5L241.1,70c5.8-7.6,7.5-17.5,4.5-26.6l-9.4-28.4
		c-7.5-22.8,14.5-44.3,37.1-36.4l28.3,9.9C310.6-8.4,320.6-9.9,328.3-15.5L328.3-15.5z"/>
	<path class="st0" d="M309.7,30.9c0-3.9-4.2-7.4-9.3-7.4c-1.9,0-3.7,0.4-5.3,1.3c-2.3-2.3-5.5-3.6-8.8-3.5c-4.8,0-8.8,2.4-10.2,5.6
		c-0.8-0.3-1.6-0.4-2.5-0.4c-3.2,0-5.9,2-5.9,4.4L309.7,30.9z"/>
	<path class="st0" d="M320.7,36.9c0-3,6-5.8,13.4-5.8c2.6,0,5.2,0.3,7.7,1c2.8-1.7,7.5-2.7,12.7-2.7c6.9,0,12.7,1.8,14.7,4.4
		c1.2-0.2,2.4-0.3,3.6-0.3c4.7,0,8.5,1.6,8.5,3.4L320.7,36.9z"/>
	<g>
		<defs>
			<path id="SVGID_1_" d="M328.3-15.5l24.2-17.7c19.4-14.2,46.6,0,46.1,24l-0.7,30c-0.2,9.5,4.3,18.6,12,24.2l24.3,17.6
				c19.5,14.1,14.4,44.3-8.6,51.3l-28.8,8.6c-9.1,2.7-16.3,9.8-19.3,18.9l-9.2,28.6c-7.3,22.9-37.7,27.4-51.4,7.6l-17.1-24.7
				c-5.4-7.8-14.4-12.5-23.9-12.5l-30,0.1c-24,0.1-37.7-27.4-23.1-46.5L241.1,70c5.8-7.6,7.5-17.5,4.5-26.6l-9.4-28.4
				c-7.5-22.8,14.5-44.3,37.1-36.4l28.3,9.9C310.6-8.4,320.6-9.9,328.3-15.5L328.3-15.5z"/>
		</defs>
		<clipPath id="SVGID_2_">
			<use xlink:href="#SVGID_1_"  style="overflow:visible;"/>
		</clipPath>
		<g class="st4">
			<ellipse class="st5" cx="379.4" cy="164.9" rx="177.3" ry="72.1"/>
			
				<ellipse transform="matrix(0.9913 -0.1317 0.1317 0.9913 -23.7471 35.9243)" class="st6" cx="259.6" cy="197.4" rx="177.3" ry="72.1"/>
		</g>
		<path class="st7" d="M242.1,111.3c0.3,5.9-2,8.1-4.9,7.5s-5.1-3.2-4.9-7.9c0.3-4.5,5-12.1,4.9-12.2S241.7,105.2,242.1,111.3
			L242.1,111.3z"/>
		<g class="st4">
			<path class="st0" d="M237.2,122.6c0,0,0.1,0,0.1-0.1c0,0,0,0,0,0c0-7,0-14,0-21.1c0,0,0-0.1-0.1-0.1c0,0,0,0,0,0
				c-0.1,0-0.1,0.1-0.1,0.1v21C237.1,122.5,237.1,122.5,237.2,122.6L237.2,122.6z"/>
			<path class="st0" d="M237.2,117.9c0.8-1.5,1.6-3.1,2.4-4.7c0-0.1,0-0.1,0-0.2c0,0-0.1,0-0.1,0c0,0,0,0,0,0
				c-0.7,1.5-1.4,2.9-2.2,4.3l-2.2-4.6c0-0.1-0.1-0.1-0.2-0.1c-0.1,0-0.1,0.1-0.1,0.1c0,0,0,0,0,0
				C235.5,114.4,236.3,116.1,237.2,117.9z"/>
			<path class="st0" d="M237.2,112.5c0.7-1.3,1.3-2.7,1.9-4.1c0,0,0-0.1,0-0.1c0,0-0.1,0-0.1,0c0,0,0,0,0,0
				c-0.6,1.3-1.1,2.5-1.7,3.7c-0.6-1.3-1.2-2.5-1.7-3.6c0,0-0.1,0-0.1,0c0,0,0,0.1,0,0.1C235.9,109.7,236.5,111.1,237.2,112.5
				L237.2,112.5z"/>
			<path class="st0" d="M237.2,107.8c0.5-1.1,1-2.3,1.5-3.4c0,0,0-0.1,0-0.1c0,0-0.1,0-0.1,0c0,0,0,0,0,0c-0.4,1-0.9,2-1.3,3
				c-0.5-0.9-0.9-1.9-1.3-2.7c0,0-0.1,0-0.1,0c0,0,0,0,0,0c0,0,0,0.1,0,0.1C236.2,105.7,236.6,106.8,237.2,107.8L237.2,107.8z"/>
			<path class="st0" d="M283.9,44.7c0-1.6-2.2-3-4.9-3c-1,0-1.9,0.2-2.8,0.5c-1.3-1-3-1.5-4.6-1.4c-2.5,0-4.6,1-5.3,2.3
				c-0.4-0.1-0.9-0.2-1.3-0.2c-1.7,0-3.1,0.8-3.1,1.8L283.9,44.7z"/>
		</g>
		<path class="st7" d="M315.8,86.1c0.3,6.9-2.3,9.4-5.7,8.8s-6-3.7-5.7-9.1c0.4-5.2,5.8-14,5.7-14.2S315.4,79,315.8,86.1z"/>
		<path class="st8" d="M310.1,99.1c0.1,0,0.1,0,0.2-0.1c0,0,0,0,0-0.1c0-8.2,0-16.3,0-24.5c0-0.1,0-0.1-0.1-0.1c0,0,0,0,0,0
			c-0.1,0-0.1,0.1-0.2,0.2c0,8.1,0,16.2,0,24.3C309.9,99,310,99.1,310.1,99.1L310.1,99.1z"/>
		<path class="st8" d="M310.1,93.8c1-1.7,1.9-3.6,2.8-5.5c0-0.1,0-0.2-0.1-0.2c-0.1,0-0.2,0-0.2,0.1c0,0,0,0,0,0
			c-0.8,1.7-1.6,3.4-2.5,4.9l-2.5-5.3c0-0.1-0.1-0.1-0.2-0.1c-0.1,0-0.1,0.1-0.1,0.2c0,0,0,0,0,0C308.2,89.7,309.2,91.7,310.1,93.8z
			"/>
		<path class="st8" d="M310.1,87.5c0.8-1.6,1.5-3.2,2.3-4.8c0-0.1,0-0.2-0.1-0.2c-0.1,0-0.2,0-0.2,0.1c0,0,0,0,0,0
			c-0.6,1.4-1.3,2.9-2,4.2c-0.7-1.4-1.3-2.8-2-4.1c0-0.1-0.1-0.1-0.2-0.1c0,0,0,0,0,0c-0.1,0-0.1,0.1-0.1,0.2
			C308.5,84.3,309.3,85.9,310.1,87.5L310.1,87.5z"/>
		<path class="st8" d="M310.1,82.1c0.6-1.3,1.2-2.7,1.8-4.1c0-0.1,0-0.2-0.1-0.2l0,0c-0.1,0-0.2,0-0.2,0.1c0,0,0,0,0,0
			c-0.5,1.2-1,2.3-1.5,3.4c-0.5-1.1-1-2.1-1.5-3.1c-0.1-0.1-0.1-0.1-0.2,0c0,0,0,0,0,0c-0.1,0-0.1,0.1-0.1,0.2
			C308.9,79.6,309.5,80.8,310.1,82.1L310.1,82.1z"/>
		<path class="st9" d="M365,95.7c0.6,13.5-4.5,18.4-11.1,17.1s-11.7-7.2-11.1-17.9c0.8-10.1,11.3-27.4,11.1-27.8
			C353.7,66.6,364.2,81.8,365,95.7L365,95.7z"/>
		<path class="st8" d="M353.8,121.1c0,0,0.1,0,0.1-0.1c0,0,0,0,0,0c0-16,0-32,0-47.9c0,0,0-0.1-0.1-0.1c0,0,0,0,0,0
			c-0.1,0-0.1,0.1-0.1,0.1c0,15.9,0,31.9,0,47.8C353.7,121.1,353.7,121.1,353.8,121.1L353.8,121.1z"/>
		<path class="st8" d="M353.8,110.3c1.8-3.3,3.6-6.8,5.3-10.4c0-0.1,0-0.1,0-0.2c0,0-0.1,0-0.1,0c0,0,0,0,0,0
			c-1.6,3.5-3.3,6.9-5.1,10c-1.8-3.7-3.5-7.3-5.1-10.8c0-0.1-0.1-0.1-0.2-0.1c-0.1,0-0.1,0.1-0.1,0.1c0,0,0,0,0,0
			C350.2,102.7,352,106.4,353.8,110.3z"/>
		<path class="st8" d="M353.8,98c1.5-2.9,2.9-5.9,4.3-9.1c0,0,0-0.1,0-0.2c0,0-0.1,0-0.1,0c0,0,0,0,0,0c-1.3,3-2.7,5.9-4.1,8.7
			c-1.4-2.9-2.8-5.8-4.1-8.5c0,0-0.1,0-0.1,0c0,0,0,0.1,0,0.1C350.9,91.9,352.3,94.9,353.8,98L353.8,98z"/>
		<path class="st8" d="M353.8,87.4c1.1-2.4,2.3-5,3.3-7.5c0,0,0-0.1,0-0.2c0,0-0.1,0-0.1,0c0,0,0,0,0,0c-1,2.4-2.1,4.8-3.2,7.1
			c-1.1-2.2-2.1-4.4-3.1-6.5c0,0-0.1,0-0.1,0c0,0,0,0,0,0c0,0,0,0.1,0,0.2C351.6,82.8,352.7,85.1,353.8,87.4L353.8,87.4z"/>
		<path class="st7" d="M314.6,51.7l0.1-0.1c0.5-0.4,1.2-0.6,1.8-0.6c0.3,0.1,0.6,0.3,0.8,0.5l0.4-0.2c-0.2-0.4-0.6-0.6-1.1-0.7
			c-0.7-0.1-1.4,0.1-2,0.6c-0.9-0.7-2.2-0.7-3,0.1l0.3,0.3c0.7-0.7,1.9-0.7,2.6,0L314.6,51.7z"/>
		<path class="st7" d="M309.7,54.6l0.1-0.1c0.5-0.4,1.2-0.6,1.8-0.6c0.3,0.1,0.6,0.3,0.8,0.5l0.4-0.2c-0.2-0.4-0.6-0.6-1.1-0.7
			c-0.7-0.1-1.4,0.1-2,0.6c-0.9-0.7-2.2-0.7-3,0.1l0.3,0.3c0.7-0.7,1.9-0.7,2.6,0L309.7,54.6z"/>
		<path class="st7" d="M325.1,56.3l0.1-0.1c0.5-0.4,1.2-0.6,1.8-0.6c0.3,0.1,0.6,0.3,0.8,0.5l0.4-0.2c-0.2-0.4-0.6-0.6-1.1-0.7
			c-0.7-0.1-1.4,0.1-2,0.6c-0.9-0.7-2.2-0.7-3,0.1l0.3,0.3c0.7-0.7,1.9-0.7,2.6,0L325.1,56.3z"/>
		<path class="st7" d="M300.3,93.1c0.2,5.2-1.7,7-4.3,6.6s-4.5-2.8-4.3-6.9c0.3-3.9,4.3-10.5,4.3-10.6S300,87.7,300.3,93.1z"/>
		<path class="st8" d="M296,102.9c0.1,0,0.1,0,0.2-0.1c0,0,0,0,0-0.1c0-6.1,0-12.3,0-18.4c0-0.1,0-0.1-0.1-0.1c0,0,0,0,0,0
			c-0.1,0-0.1,0.1-0.2,0.2c0,6.1,0,12.2,0,18.3C295.8,102.8,295.9,102.9,296,102.9L296,102.9z"/>
		<path class="st8" d="M296,98.9c0.8-1.3,1.5-2.7,2.2-4.2c0-0.1,0-0.2-0.1-0.2c-0.1,0-0.2,0-0.2,0.1c0,0,0,0,0,0
			c-0.6,1.3-1.2,2.5-1.8,3.6l-1.8-3.9c0-0.1-0.1-0.1-0.2-0.1c-0.1,0-0.1,0.1-0.1,0.2c0,0,0,0,0,0L296,98.9z"/>
		<path class="st8" d="M296,94.2c0.6-1.2,1.2-2.4,1.8-3.7c0-0.1,0-0.2-0.1-0.2c-0.1,0-0.2,0-0.2,0.1c0,0,0,0,0,0
			c-0.5,1.1-1,2.1-1.5,3.1l-1.5-3c0-0.1-0.1-0.1-0.2-0.1c0,0,0,0,0,0c-0.1,0-0.1,0.1-0.1,0.2C294.8,91.7,295.4,92.9,296,94.2
			L296,94.2z"/>
		<path class="st8" d="M296,90.1c0.5-1,0.9-2.1,1.4-3.1c0-0.1,0-0.2-0.1-0.2l0,0c-0.1,0-0.2,0-0.2,0.1c0,0,0,0,0,0
			c-0.4,0.8-0.7,1.7-1.1,2.5l-1.1-2.3c-0.1-0.1-0.1-0.1-0.2,0c0,0,0,0,0,0c-0.1,0-0.1,0.1-0.1,0.2C295,88.2,295.5,89.2,296,90.1z"/>
	</g>
	<ellipse class="st10" cx="232.8" cy="212.5" rx="70.2" ry="5.1"/>
	<path class="st11" d="M268.5,202.2c0,0,6.8,1.6,11.3,1.3s3.3,2.2,2.2,3c-1.3,0.9-8.7,4.2-17.1,5.2c-3.3,0.4-2.5-8.2-2.5-8.2
		S265.2,204.6,268.5,202.2z"/>
	<path class="st11" d="M225.7,199.1c0,0,4.3,5.5,8.1,8.1s1.3,3.8-0.2,3.7c-1.6-0.1-9.4-2.1-16.7-6.6c-2.8-1.8,3.2-7.9,3.2-7.9
		S221.6,198.9,225.7,199.1L225.7,199.1z"/>
	<path class="st0" d="M225.8,199c0,0,4.4,5.4,8.1,8s1.3,3.8-0.1,3.7c-1.6-0.1-14.5-5-17-6.6c-2.8-1.8,2.8-8.1,2.8-8.1
		C221.2,197.8,223.4,198.9,225.8,199L225.8,199z"/>
	
		<linearGradient id="SVGID_3_" gradientUnits="userSpaceOnUse" x1="1078.1437" y1="482.8801" x2="1100.2936" y2="482.8801" gradientTransform="matrix(0.6614 -0.75 -0.75 -0.6614 -87.2324 1245.3481)">
		<stop  offset="0" style="stop-color:#522E00"/>
		<stop  offset="3.000000e-002" style="stop-color:#552F01"/>
		<stop  offset="0.4" style="stop-color:#6E3B06"/>
		<stop  offset="0.73" style="stop-color:#7E420A"/>
		<stop  offset="1" style="stop-color:#83450B"/>
	</linearGradient>
	<path class="st12" d="M249.1,100.4c-1.1,1.6,0,4.9,3.3,6.6s10.3,7.7,15.7,8.3s12.8-0.2,14.6,0.5c1.6,0.8,3.4,1.2,5.2,1.1
		c2.3-0.1,2.7,0.4,3.6,0.3s0.6-1,0.2-1.2c-0.7-0.3-1.4-0.6-2-1.1c-0.1-0.3,1.1-0.4,1.6-0.2c0.5,0.3,0.9,0.6,1.3,1.1
		c0.5,0.5,0.8,0.8,1.3,0.8s0.1-1-0.3-1.6s-1.1-1.2-1.6-1.7c0,0,0-0.6-0.2-0.7s-1.4-1.4-1.8-1.4s-1.5,0.4-2.2,0.4s-5.2,1.2-4.4,0.9
		c0.2-0.1-9.9-1.4-15.6-3.3c-1.7-0.6-10.2-6.7-12.5-7.9C251.8,99.4,250.2,98.8,249.1,100.4L249.1,100.4z"/>
	<path class="st13" d="M261.7,112.9l-7.3-8l-0.3,3.6L261.7,112.9z"/>
	<path class="st14" d="M252.5,86.9c0.1,5.3-2.8,6.8-9.1,6.8c-5,1.2-11.2-2-10.3-7.1c-1.1-6.4,2.8-10.6,11.3-10.8
		C249,75.7,255,80.5,252.5,86.9L252.5,86.9z"/>
	
		<linearGradient id="SVGID_4_" gradientUnits="userSpaceOnUse" x1="241.0106" y1="71.92" x2="241.0106" y2="78.4433" gradientTransform="matrix(1 0 0 -1 0 234.26)">
		<stop  offset="0" style="stop-color:#D81841"/>
		<stop  offset="6.000000e-002" style="stop-color:#CB1943"/>
		<stop  offset="0.23" style="stop-color:#AB1B46"/>
		<stop  offset="0.4" style="stop-color:#921D49"/>
		<stop  offset="0.58" style="stop-color:#811E4B"/>
		<stop  offset="0.77" style="stop-color:#761F4D"/>
		<stop  offset="1" style="stop-color:#731F4D"/>
	</linearGradient>
	<path class="st15" d="M237,156.1l-2.5,4.3c0,0-0.4,2.5,9.3,1.8S241.6,154.2,237,156.1z"/>
	
		<linearGradient id="SVGID_5_" gradientUnits="userSpaceOnUse" x1="595.7467" y1="200.006" x2="591.3567" y2="197.266" gradientTransform="matrix(0.6614 -0.75 -0.75 -0.6614 -87.2324 1245.3481)">
		<stop  offset="0" style="stop-color:#522E00"/>
		<stop  offset="3.000000e-002" style="stop-color:#552F01"/>
		<stop  offset="0.4" style="stop-color:#6E3B06"/>
		<stop  offset="0.73" style="stop-color:#7E420A"/>
		<stop  offset="1" style="stop-color:#83450B"/>
	</linearGradient>
	<path class="st16" d="M259.3,145c-2.9-0.9-6.5,0.3-9.3,1.2c-1.3,0.4-5.5,1.2-6.3,2.4s-0.5,5.1-0.7,6.6c-0.4,3.8-1.3,7.5-2.6,11.1
		c-1.2,3.1-3.2,5.8-5.8,7.8c-5.4,4.3-7.1,10.4-10.9,15.9c-1.1,1.6-4.4,6.4-4.4,6.4c0.2,1.6,5,2.9,6.3,2.7c0,0,4.4-5.9,5.9-7.9
		c2.8-3.7,12.4-13.4,13.8-14.8c2.7-2.6,3.8-6.9,5.4-10.2C254.2,159.3,257.2,152.6,259.3,145z"/>
	
		<linearGradient id="SVGID_6_" gradientUnits="userSpaceOnUse" x1="508.8525" y1="427.8588" x2="499.4525" y2="427.3888" gradientTransform="matrix(0.6614 -0.75 -0.75 -0.6614 -87.2324 1245.3481)">
		<stop  offset="0" style="stop-color:#522E00"/>
		<stop  offset="3.000000e-002" style="stop-color:#552F01"/>
		<stop  offset="0.4" style="stop-color:#6E3B06"/>
		<stop  offset="0.73" style="stop-color:#7E420A"/>
		<stop  offset="1" style="stop-color:#83450B"/>
	</linearGradient>
	<path class="st17" d="M269,203.3c-0.4-2.4-3-9.7-3.6-12.4s-1.6-17-1.8-19.3s-3.5-9-5-13.6s-6.5-17.1-6.5-17.1
		c-0.3-0.9-11.2-3.9-12.3-1.3s-2.7,7.1,0,11.4s11.5,15.6,13.5,18.3s1.8,5.6,1.9,9.9s3,11.2,4,14.1s3,10.6,3,10.6
		S269.4,205.7,269,203.3L269,203.3z"/>
	
		<linearGradient id="SVGID_7_" gradientUnits="userSpaceOnUse" x1="229.7601" y1="100.8985" x2="261.9642" y2="106.5793" gradientTransform="matrix(1 0 0 -1 0 234.26)">
		<stop  offset="0" style="stop-color:#D81841"/>
		<stop  offset="1" style="stop-color:#FF4774"/>
	</linearGradient>
	<path class="st18" d="M250,99c2.2,0.4,4.9,0.5,5.3,2.5s-0.2,4.5,1.2,6.3c1.4,1.8,3.2,3.7,3,6.1c-0.1,1.7-1.1,3.3-2.5,4.1l2.1,6.9
		c3.5,11.5,2.1,32.4,3.2,33.9c0,0-4.9,3.1-13.3,0.7c-8.3-2.5-13-0.8-14.3,0.9c0,0,0.7-18.9,2.7-23.8c3.7-9,0.8-13.5-1.2-17.4
		s-5.3-11.1-5-13.7C231.6,101.8,243.5,97.8,250,99L250,99z"/>
	<path class="st13" d="M248.6,98.9c0,0,2.3,1.9,2.1,3.3c-0.1,0.7-0.1,1.5-0.1,2.2c1.1-0.4,1.8-1.4,1.8-2.6
		C252.4,99.4,248.6,98.9,248.6,98.9z"/>
	<path class="st13" d="M234.5,115.9l0.8,1.8c0,0,2.6-4.2,0.7-10.8C234.7,102.4,234.5,115.9,234.5,115.9z"/>
	
		<linearGradient id="SVGID_8_" gradientUnits="userSpaceOnUse" x1="466.8377" y1="505.5877" x2="487.1977" y2="505.5877" gradientTransform="matrix(0.6614 -0.75 -0.75 -0.6614 -87.2324 1245.3481)">
		<stop  offset="0" style="stop-color:#522E00"/>
		<stop  offset="3.000000e-002" style="stop-color:#552F01"/>
		<stop  offset="0.4" style="stop-color:#6E3B06"/>
		<stop  offset="0.73" style="stop-color:#7E420A"/>
		<stop  offset="1" style="stop-color:#83450B"/>
	</linearGradient>
	<path class="st19" d="M233.4,103.3c2,0.2,3.4,4.1,2.7,7.8s-2.2,14.3-5.1,18.8s-7.1,8.5-7.6,10.3s0.1,3.3-1.5,5s-1.4,2.3-2.1,3
		s-1.2-0.2-1-0.6c0.2-0.7,0.4-1.5,0.4-2.3c-0.1-0.3-1,0.6-1.2,1.1c-0.1,0.5-0.1,1.1,0,1.7c0.1,0.8,0.1,1.1-0.2,1.6s-0.9-0.6-1-1.3
		s-0.2-1.6-0.3-2.3c0,0-0.5-0.4-0.5-0.6s-0.2-2,0-2.3s1.2-0.9,1.8-1.4s2.3-1.7,2.6-2.5s5.2-12.8,7-16.4c0.8-1.6,1.9-10.5,2.4-13.1
		C230.5,105.8,231.4,103.1,233.4,103.3L233.4,103.3z"/>
	
		<linearGradient id="SVGID_9_" gradientUnits="userSpaceOnUse" x1="487.9977" y1="510.8138" x2="502.7677" y2="510.8138" gradientTransform="matrix(0.6614 -0.75 -0.75 -0.6614 -87.2324 1245.3481)">
		<stop  offset="0" style="stop-color:#522E00"/>
		<stop  offset="3.000000e-002" style="stop-color:#552F01"/>
		<stop  offset="0.4" style="stop-color:#6E3B06"/>
		<stop  offset="0.73" style="stop-color:#7E420A"/>
		<stop  offset="1" style="stop-color:#83450B"/>
	</linearGradient>
	<path class="st20" d="M251.7,101.2c-0.4-1.4-2.2-1.5-3.1-2.4c-0.1-0.1-0.1-0.1-0.2-0.2c-0.9-1.1-0.9-8.3-0.9-8.3l-7.7-2.5
		c0.4,1.9,0.5,3.9,0.5,5.8c0,0.4,0,0.8-0.1,1.3c-0.2,2.4-1.4,4.6-3.2,6.1c0,0,6.5,4.8,11,4.4C251.3,105.1,252.2,102.7,251.7,101.2
		L251.7,101.2z"/>
	<path class="st21" d="M247.8,96.6c-5.2-0.4-6.3-4.1-6.3-4.1s2.7,1.4,4.2,2.3c1.3,0.8,1.8-0.6,2.1-0.4V96.6z"/>
	
		<linearGradient id="SVGID_10_" gradientUnits="userSpaceOnUse" x1="238.0554" y1="146.5399" x2="252.0591" y2="146.5399" gradientTransform="matrix(1 0 0 -1 0 234.26)">
		<stop  offset="0" style="stop-color:#784008"/>
		<stop  offset="0.35" style="stop-color:#7E430A"/>
		<stop  offset="1" style="stop-color:#83450B"/>
	</linearGradient>
	<path class="st22" d="M243.5,79.6c4.7-0.2,9.3,3.3,8.5,10.1s-4.4,8.2-10,3.5C237.4,89.3,235.6,79.9,243.5,79.6L243.5,79.6z"/>
	<path class="st14" d="M249.9,82.4c-1.5,1.8-4.7-0.5-7.1,1.9c-3.5,3.3-2.1,4.9-3.8,6.9c0,0-3.3-1-4.1-4.1c-0.3-1-0.3-1.2,1-4.4
		c1.4-3.5,4.7-7.1,8.7-6.5c5.4,0.8,10,5.3,8,7.8C251.7,83.4,250.8,82.9,249.9,82.4z"/>
	<path class="st0" d="M268.5,201.9c0,0,6.8,1.6,11.3,1.3s3.3,2.2,2.2,3c-1.3,0.9-14.6,4.9-17.5,5.2c-3.3,0.3-2.8-8.2-2.8-8.2
		C264.2,203.8,266.6,203.3,268.5,201.9z"/>
	<path class="st23" d="M248.8,201.3c0,0,7,0.6,11.4-0.3c4.4-0.9,3.6,1.7,2.6,2.7s-13.7,6.9-16.6,7.6c-3.3,0.8-3.9-7.7-3.9-7.7
		C244.7,203.8,247,203,248.8,201.3L248.8,201.3z"/>
	<path class="st23" d="M181.8,202c0,0,4.5,5.4,8.2,7.9s1.3,3.8-0.1,3.7c-1.6,0-14.6-4.9-17-6.4c-2.8-1.8,2.7-8.2,2.7-8.2
		C177.2,200.8,179.4,201.9,181.8,202L181.8,202z"/>
	<path class="st24" d="M224.9,142.4c0,0,8,13.7,12.8,22.1c4,7,12.8,35.1,13.3,35.6s-0.5,2.4-4.4,3.6s-5.2,0-5.5-0.3
		s-9.2-24.1-12.8-29.5c-2.6-3.9-5.2-5.7-8.9-9.8c-2.2-2.4-5.6-6-5.6-6L224.9,142.4z"/>
	<path class="st25" d="M222.4,153.2c3.2-8.8,2.7-13.1,2.5-10.8l-11.1,15.7c0,0,2,2,4.1,4.4C219.8,159.6,221.2,156.5,222.4,153.2z"/>
	<path class="st24" d="M225.7,141.3c0,0-12.6,24.6-16.5,30.6s-5,7.2-6.4,8.6s-18.1,23.3-18.1,23.7s-4,1.3-5.7-0.1
		c-1.6-1.4-2.8-3-3.7-4.9c-0.2-0.8,5.5-9.3,13.2-19.8c1.8-2.5,5.4-6.6,6.4-8.7s5.6-24.7,6.3-28.2S225.8,137.3,225.7,141.3
		L225.7,141.3z"/>
	
		<linearGradient id="SVGID_11_" gradientUnits="userSpaceOnUse" x1="2575.5728" y1="127.1166" x2="2574.4128" y2="137.5366" gradientTransform="matrix(-1 -2.000000e-002 2.000000e-002 -1 2786.6338 274.653)">
		<stop  offset="0" style="stop-color:#F4A66C"/>
		<stop  offset="1" style="stop-color:#D66C54"/>
	</linearGradient>
	<path class="st26" d="M210.4,81.4c0.2,3-0.1,6.1-0.9,9c0,0,5.6,5.8,7.7,6.1s1.4-0.2,1.5-3.8c0.1-2.2,0.5-4.4,1.3-6.4
		C220,86.3,214.2,79.8,210.4,81.4L210.4,81.4z"/>
	<path class="st27" d="M219.2,89.4c0,0-0.9,1.9-4.4,0.2s-4.1-6.9-4.8-12.2S219.2,89.4,219.2,89.4L219.2,89.4z"/>
	<path class="st28" d="M210.4,82.4c0,0-2.3-8.4,0.5-12s12.9-2.7,13.1,4.9s-1.8,14.6-6.6,14.3S211.4,86.8,210.4,82.4z"/>
	<path class="st14" d="M211.5,79.5c-0.7-4.6,1.3-4.6,1.8-4.9c0.7-0.5,0.6-2.3,1.3-2.7c1.5-1.2,2.9,0.6,5.1,0.4
		c1.8-0.1,2.3-1.2,3.1-0.7c0.2,0.3,0.5,0.7,0.6,0.9c0-0.5-0.1-1-0.3-1.5c-0.3-0.9-2.8-3.7-7.7-3.1c-4.7,0.6-6.1,3.7-6.2,6.4
		c-0.1,1.4,0,2.9,0.3,4.3c0.1,0.7,0.3,1.4,0.6,2c0.2,0.4,0.6-2,0.6-2L211.5,79.5z"/>
	
		<linearGradient id="SVGID_12_" gradientUnits="userSpaceOnUse" x1="183.2602" y1="102.1084" x2="211.9964" y2="102.1084" gradientTransform="matrix(1 2.000000e-002 2.000000e-002 -1 14.9374 215.0469)">
		<stop  offset="0" style="stop-color:#F98D2B"/>
		<stop  offset="0.14" style="stop-color:#FA9A27"/>
		<stop  offset="0.48" style="stop-color:#FCB61F"/>
		<stop  offset="0.78" style="stop-color:#FEC71A"/>
		<stop  offset="1" style="stop-color:#FECD18"/>
	</linearGradient>
	<path class="st29" d="M202.5,144.3c0,0,27,0.9,25.6-4.8c-5.9-24.3-3.9-27.7-9.3-45.4c-2.8,2.9-8.8-2.6-8.9-5
		c-4.7,5.1-7.5,11.6-8.1,18.5c-0.6,7.9,0.6,19.2,0.1,23.4C200.7,139.7,196.4,144.3,202.5,144.3L202.5,144.3z"/>
	<path class="st30" d="M219.8,144.1c-7.5-10.6-20-16.4-15.1-37.4c3.1-13.1,12.5-19.9,12.2,10C216.9,125.9,217.9,135.1,219.8,144.1z"
		/>
	
		<linearGradient id="SVGID_13_" gradientUnits="userSpaceOnUse" x1="3.0135" y1="-148.6498" x2="35.3735" y2="-148.6498" gradientTransform="matrix(0.95 0.32 0.32 -0.95 247.8561 -27.2155)">
		<stop  offset="0" style="stop-color:#F98D2B"/>
		<stop  offset="0.17" style="stop-color:#FA9E2C"/>
		<stop  offset="0.5" style="stop-color:#FCBA2C"/>
		<stop  offset="0.78" style="stop-color:#FECB2D"/>
		<stop  offset="1" style="stop-color:#FED12D"/>
	</linearGradient>
	<path class="st31" d="M210.4,94.3c4.8-1.1,6.5,5.6,6.6,6.1c0.5,5.9-2.1,15.8-1.6,18.6c0.6,3.1,7.6,15.4,9.7,18.3s1.5,3.2,1.3,3.9
		c0.5,1-4.9,4.3-5.2,2.9c-1.3,0.9-1.8-0.7-2.8-2.3s-4.6-7.6-8-12.6c-2.6-3.8-4-6.1-4.6-9.4c-0.8-5.4-0.9-11-0.2-16.4
		C206.4,98.4,207.8,94.9,210.4,94.3L210.4,94.3z"/>
	<path class="st28" d="M225,138.8c0.3,0,0.5,0.2,0.6,0.4c0.5,0.9,1.7,3.1,2.1,4c0.5,1.2,1.6,3,1.7,3.8c0,0.4-0.3,0.8-0.7,0.8
		c-0.1,0-0.1,0-0.2,0c-0.6-0.2-2.1-3.3-2.3-3.2s1.7,3.7,1.7,4.3c0,0.4-0.3,0.7-0.6,0.7c-0.1,0-0.2,0-0.4-0.1c-0.4-0.4-2.2-4-2.4-3.9
		s1.2,3.2,1,4.1c-0.1,0.3-0.4,0.5-0.7,0.4c-0.1,0-0.2-0.1-0.3-0.2c-0.6-0.8-1.4-3.2-1.7-3.1s0.6,2.8,0.2,3.3
		c-0.2,0.3-0.6,0.3-0.8,0.1c0,0-0.1-0.1-0.1-0.1c-0.5-0.5-0.7-1.9-1.1-3.5c-0.1-0.3-1-1.9-1.5-2.6c-0.1-0.3-0.1-0.6,0-0.9
		C220.2,142,222.2,138.4,225,138.8L225,138.8z"/>
</g>
<g class="st32">
	<defs>
		<polygon id="SVGID_14_" class="st32" points="0,53.6 245.1,53.6 182.1,129.6 175.3,196 0,213.6 		"/>
	</defs>
	<clipPath id="SVGID_15_">
		<use xlink:href="#SVGID_14_"  style="overflow:visible;"/>
	</clipPath>
	<g class="st33">
		<path class="st34" d="M233.5,207.4c0-4.3,3.5-7.9,7.9-7.9s7.9,3.5,7.9,7.9l0,0"/>
		<path class="st34" d="M279.2,207.4c0-4.3-3.5-7.9-7.9-7.9s-7.9,3.5-7.9,7.9l0,0"/>
		<path class="st34" d="M497,207.4c0-4.3-3.5-7.9-7.9-7.9s-7.9,3.5-7.9,7.9l0,0"/>
		<path class="st34" d="M465.9,207.4c0-4.3-3.5-7.9-7.9-7.9c-4.3,0-7.9,3.5-7.9,7.9l0,0"/>
		<path class="st34" d="M434.8,207.4c0-4.3-3.5-7.9-7.9-7.9c-4.3,0-7.9,3.5-7.9,7.9l0,0"/>
		<path class="st34" d="M403.7,207.4c0-4.3-3.5-7.9-7.9-7.9s-7.9,3.5-7.9,7.9l0,0"/>
		<path class="st34" d="M372.6,207.4c0-4.3-3.5-7.9-7.9-7.9c-4.3,0-7.9,3.5-7.9,7.9l0,0"/>
		<path class="st34" d="M341.4,207.4c0-4.3-3.5-7.9-7.9-7.9c-4.3,0-7.9,3.5-7.9,7.9l0,0"/>
		<path class="st34" d="M310.3,207.4c0-4.3-3.5-7.9-7.9-7.9s-7.9,3.5-7.9,7.9l0,0"/>
		<g>
			<path class="st34" d="M502.6,168.1h-44.4h-28v5.7v17"/>
			<path class="st34" d="M452,168.1v-48.7h50.6"/>
			<path class="st34" d="M477.3,119.5V79.7h25.3v111.1"/>
			<path class="st34" d="M461.5,119.5v47.8"/>
			<path class="st34" d="M471.9,119.5v47.8"/>
			<path class="st34" d="M482.3,119.5v47.8"/>
			<path class="st34" d="M492.7,119.5v47.8"/>
			<path class="st34" d="M452.1,159h51"/>
			<path class="st34" d="M452.1,148.6h51"/>
			<path class="st34" d="M452.1,138.2h51"/>
			<path class="st34" d="M452.1,127.8h51"/>
			<path class="st34" d="M477.3,85.2h25.3"/>
			<path class="st34" d="M477.3,89.4h25.3"/>
			<path class="st34" d="M477.3,106h25.3"/>
			<path class="st34" d="M477.3,110.1h25.3"/>
			<path class="st34" d="M477.3,95.6h25.3"/>
			<path class="st34" d="M477.3,99.7h25.3"/>
			<path class="st34" d="M482.3,85.2v4.1"/>
			<path class="st34" d="M488.5,106v4.1"/>
			<path class="st34" d="M493.7,95.6v4.1"/>
			<path class="st34" d="M495.8,79.7v-5"/>
			<path class="st34" d="M436,190.8v-16.6h66.6"/>
			<path class="st34" d="M441.1,190.8l11.2-11.2h50.3"/>
			<path class="st34" d="M450.5,190.8l6-6h46.1"/>
			<path class="st34" d="M461.5,184.8v6"/>
			<path class="st34" d="M471.9,184.8v6"/>
			<path class="st34" d="M482.3,184.8v6"/>
			<path class="st34" d="M492.7,184.8v6"/>
			<path class="st34" d="M95,190.4v-56.9l-17.7-18.3l-18.6,18.3v11.8v2.9v2v3.8v1.3v1.5v33.8"/>
			<path class="st34" d="M95,133.4H58.7"/>
			<path class="st34" d="M91.7,133.4l-14.8-14.8L62,133.5"/>
			<path class="st34" d="M64.1,131.5h25.7"/>
			<path class="st34" d="M73.5,124.7h7.4v5.1h-7.4V124.7z"/>
			<path class="st34" d="M65.8,139.4h5.4V151h-5.4V139.4z"/>
			<path class="st34" d="M65.8,145.2h5.4"/>
			<path class="st34" d="M76.2,139.4h15.7V151H76.2V139.4z"/>
			<path class="st34" d="M79.7,139.4V151"/>
			<path class="st34" d="M88,139.4V151"/>
			<path class="st34" d="M76.2,157h15.7v11.6H76.2V157z"/>
			<path class="st34" d="M79.7,157v11.6"/>
			<path class="st34" d="M88,157v11.6"/>
			<path class="st34" d="M76.2,174.7h15.7v11.6H76.2V174.7z"/>
			<path class="st34" d="M79.7,174.7v11.6"/>
			<path class="st34" d="M88,174.7v11.6"/>
			<path class="st34" d="M72.1,190.4v-27.6c0,0,0.6-4.6-4.6-4.6"/>
			<path class="st34" d="M63.4,190.4v-27.6c0,0-0.6-4.6,4.6-4.6"/>
			<path class="st34" d="M63.4,188h8.8"/>
			<path class="st34" d="M63.4,186h8.8"/>
			<path class="st34" d="M63.4,183.9h8.8"/>
			<path class="st34" d="M63.4,181.8h8.8"/>
			<path class="st34" d="M63.4,179.7h8.8"/>
			<path class="st34" d="M63.4,177.7h8.8"/>
			<path class="st34" d="M63.4,175.6h8.8"/>
			<path class="st34" d="M63.4,173.5h8.8"/>
			<path class="st34" d="M70.2,167.8v1.6"/>
			<path class="st34" d="M84.4,122.4v-4.1h-1.9v2"/>
			<path class="st34" d="M53.7,190.3V123l-3.6-3.7l-6.6-6.8l-10.7-11.1l-22,21.7v67.3"/>
			<path class="st34" d="M10.8,123h4h28.6h6.3h0.3h3.6"/>
			<path class="st34" d="M14.7,123.1l0.1-0.1l2.3-2.3l15.2-15.2l11.1,11.1l4,4l2.3,2.3"/>
			<path class="st34" d="M17.2,120.7h26.3h4"/>
			<path class="st34" d="M28.3,112.7H37v6h-8.7V112.7z"/>
			<path class="st34" d="M19.2,130.1h6.3v13.7h-6.3V130.1z"/>
			<path class="st34" d="M19.2,136.9h6.3"/>
			<path class="st34" d="M31.5,130.1h18.6v13.7H31.5L31.5,130.1z"/>
			<path class="st34" d="M35.7,130.1v13.7"/>
			<path class="st34" d="M45.5,130.1v13.7"/>
			<path class="st34" d="M26.7,190.3v-32.6c0,0,0.7-5.4-5.4-5.4"/>
			<path class="st34" d="M16.3,190.3v-32.6c0,0-0.7-5.4,5.4-5.4"/>
			<path class="st34" d="M16.3,187.5h10.4"/>
			<path class="st34" d="M16.3,185.1h10.4"/>
			<path class="st34" d="M16.3,182.6h10.4"/>
			<path class="st34" d="M16.3,180.2h10.4"/>
			<path class="st34" d="M16.3,177.7h10.4"/>
			<path class="st34" d="M16.3,175.3h10.4"/>
			<path class="st34" d="M16.3,172.8h10.4"/>
			<path class="st34" d="M16.3,170.4h10.4"/>
			<path class="st34" d="M41.1,110v-4.8h-2.3v2.4"/>
			<path class="st34" d="M32.8,101.4V97"/>
			<path class="st34" d="M31.7,150.8H38v13.7h-6.3V150.8z"/>
			<path class="st34" d="M31.7,157.7H38"/>
			<path class="st34" d="M44.1,150.8h6.3v13.7h-6.3L44.1,150.8z"/>
			<path class="st34" d="M44.1,157.7h6.3"/>
			<circle class="st34" cx="21.3" cy="160.2" r="3.6"/>
			<path class="st34" d="M31.7,171.5H38v13.7h-6.3V171.5z"/>
			<path class="st34" d="M31.7,178.4H38"/>
			<path class="st34" d="M44.1,171.5h6.3v13.7h-6.3L44.1,171.5z"/>
			<path class="st34" d="M44.1,178.4h6.3"/>
			<path class="st34" d="M127.3,190.3V123l-7-7.3l-5.5-5.7l-8.3-8.6l-22,21.7"/>
			<path class="st34" d="M84.5,123h4h35h3.9"/>
			<path class="st34" d="M88.4,123.1l0.1-0.1l2.3-2.3l15.2-15.2l15.2,15.2l2.3,2.3"/>
			<path class="st34" d="M90.8,120.7h30.3"/>
			<path class="st34" d="M101.9,112.7h8.7v6h-8.7V112.7z"/>
			<path class="st34" d="M105.1,130.1h18.6v13.7h-18.6V130.1z"/>
			<path class="st34" d="M109.3,130.1v13.7"/>
			<path class="st34" d="M119.1,130.1v13.7"/>
			<path class="st34" d="M114.8,110v-4.8h-2.3v2.4"/>
			<path class="st34" d="M105.3,150.8h6.3v13.7h-6.3V150.8z"/>
			<path class="st34" d="M105.3,157.7h6.3"/>
			<path class="st34" d="M117.7,150.8h6.3v13.7h-6.3V150.8z"/>
			<path class="st34" d="M117.7,157.7h6.3"/>
			<path class="st34" d="M105.3,171.5h6.3v13.7h-6.3V171.5z"/>
			<path class="st34" d="M105.3,178.4h6.3"/>
			<path class="st34" d="M117.7,171.5h6.3v13.7h-6.3V171.5z"/>
			<path class="st34" d="M117.7,178.4h6.3"/>
			<path class="st34" d="M173.8,190.4v-56.9l-17.7-18.3l-16.3,16.1L138,133l-0.4,0.4v5.3v1.9v49.7"/>
			<path class="st34" d="M173.8,133.4h-36.3"/>
			<path class="st34" d="M140.9,133.5l8.1-8.1l6.6-6.6l0.2-0.2l14.8,14.8"/>
			<path class="st34" d="M142.9,131.5h25.7"/>
			<path class="st34" d="M152.3,124.7h7.4v5.1h-7.4V124.7z"/>
			<path class="st34" d="M144.6,139.4h5.4V151h-5.4V139.4z"/>
			<path class="st34" d="M144.6,145.2h5.4"/>
			<path class="st34" d="M155,139.4h15.7V151H155V139.4z"/>
			<path class="st34" d="M158.6,139.4V151"/>
			<path class="st34" d="M166.9,139.4V151"/>
			<path class="st34" d="M155,157h15.7v11.6H155V157z"/>
			<path class="st34" d="M158.6,157v11.6"/>
			<path class="st34" d="M166.9,157v11.6"/>
			<path class="st34" d="M155,174.7h15.7v11.6H155V174.7z"/>
			<path class="st34" d="M158.6,174.7v11.6"/>
			<path class="st34" d="M166.9,174.7v11.6"/>
			<path class="st34" d="M150.9,190.4v-27.6c0,0,0.6-4.6-4.6-4.6"/>
			<path class="st34" d="M142.2,190.4v-27.6c0,0-0.6-4.6,4.6-4.6"/>
			<path class="st34" d="M142.2,188h8.8"/>
			<path class="st34" d="M142.2,186h8.8"/>
			<path class="st34" d="M142.2,183.9h8.8"/>
			<path class="st34" d="M142.2,181.8h8.8"/>
			<path class="st34" d="M142.2,179.7h8.8"/>
			<path class="st34" d="M142.2,177.7h8.8"/>
			<path class="st34" d="M142.2,175.6h8.8"/>
			<path class="st34" d="M142.2,173.5h8.8"/>
			<path class="st34" d="M149.1,167.8v1.6"/>
			<path class="st34" d="M163.2,122.4v-4.1h-1.9v2"/>
			<path class="st34" d="M112.5,106.4h-1.2"/>
			<path class="st34" d="M155.6,118.8l-6.6,6.6"/>
			<path class="st34" d="M155.6,124.7h-3.3v3.4"/>
			<path class="st34" d="M211.6,190.8v-8.1h24.1"/>
			<path class="st34" d="M211.6,184.9h24.1"/>
			<path class="st34" d="M240.9,190.8v-8.1h-5.2"/>
			<path class="st34" d="M240.9,184.9h-5.2"/>
			<path class="st35" d="M145.9,92.7h-3.6"/>
			<path class="st35" d="M172.6,92.7h-3.1"/>
			<path class="st35" d="M182.7,92.7h-7.4"/>
			<path class="st35" d="M138.9,92.7h-14c-1-1.3-0.8-3.3,0.5-4.3c0.5-0.4,1.2-0.7,1.9-0.7c0.3,0,0.6,0,0.9,0.1
				c0.5-2.5,2.9-4.1,5.4-3.7c1,0.2,2,0.7,2.6,1.5c1.4-0.5,2.9-0.3,4.1,0.6c0.7-3.4,3.7-5.9,7.2-5.9c1.4,0,2.8,0.4,3.9,1.1
				c0.8-6.5,6.8-11.2,13.3-10.4c4.7,0.6,8.6,3.9,10,8.4c3.2-2.4,7.7-1.7,10.1,1.5c1.2,1.7,1.7,3.8,1.2,5.9c0.3-0.1,0.6-0.1,1-0.1
				c0.8,0,1.7,0.3,2.3,0.8c0.2-2.5,2.4-4.4,4.9-4.2c2.4,0.2,4.2,2.2,4.2,4.6c0,0.2,0,0.4,0,0.6c0.2,0,0.4-0.1,0.6-0.1
				c1.7,0,3.1,1.4,3.1,3.1c0,0.3,0,0.6-0.1,0.8h-15.7"/>
			<path class="st35" d="M55.4,106.3h-4.5c-0.2-0.4-0.3-0.9-0.3-1.3c0-1.7,1.4-3.1,3.1-3.1c0.3,0,0.7,0.1,1,0.2"/>
			<path class="st35" d="M54.5,102c0.5-2.5,2.8-4.4,5.4-4.4c0.2,0,0.5,0,0.7,0"/>
			<path class="st35" d="M60.6,97.7c1-4.3,5.3-6.8,9.6-5.8c2.9,0.7,5.2,3,5.8,6"/>
			<path class="st35" d="M76.1,97.9c2.6-1.6,6.1-0.8,7.7,1.8c0.5,0.7,0.7,1.6,0.8,2.4"/>
			<path class="st35" d="M84.6,102.1c0.4-0.2,0.8-0.2,1.2-0.2c1.8,0,3.2,1.4,3.2,3.2l0,0c0,0.4-0.1,0.8-0.2,1.2h-5.4"/>
			<path class="st35" d="M50.8,106.3h7.8"/>
			<path class="st35" d="M76.7,106.3h3.5"/>
			<path class="st34" d="M330.3,190.4v-56.9l17.7-18.3l18.6,18.3v11.8v2.9v2v3.8v1.3v1.5v33.8"/>
			<path class="st34" d="M330.3,133.4h36.3"/>
			<path class="st34" d="M333.6,133.4l14.8-14.8l14.9,14.9"/>
			<path class="st34" d="M361.2,131.5h-25.7"/>
			<path class="st34" d="M351.8,129.8h-7.4v-5.1h7.4V129.8z"/>
			<path class="st34" d="M359.5,151h-5.4v-11.6h5.4V151z"/>
			<path class="st34" d="M359.5,145.2h-5.4"/>
			<path class="st34" d="M349.1,151h-15.7v-11.6h15.7V151z"/>
			<path class="st34" d="M345.6,139.4V151"/>
			<path class="st34" d="M337.3,139.4V151"/>
			<path class="st34" d="M349.1,168.6h-15.7V157h15.7V168.6z"/>
			<path class="st34" d="M345.6,157v11.6"/>
			<path class="st34" d="M337.3,157v11.6"/>
			<path class="st34" d="M349.1,186.3h-15.7v-11.6h15.7V186.3z"/>
			<path class="st34" d="M345.6,174.7v11.6"/>
			<path class="st34" d="M337.3,174.7v11.6"/>
			<path class="st34" d="M353.2,190.4v-27.6c0,0-0.6-4.6,4.6-4.6"/>
			<path class="st34" d="M361.9,190.4v-27.6c0,0,0.6-4.6-4.6-4.6"/>
			<path class="st34" d="M361.9,188h-8.8"/>
			<path class="st34" d="M361.9,186h-8.8"/>
			<path class="st34" d="M361.9,183.9h-8.8"/>
			<path class="st34" d="M361.9,181.8h-8.8"/>
			<path class="st34" d="M361.9,179.7h-8.8"/>
			<path class="st34" d="M361.9,177.7h-8.8"/>
			<path class="st34" d="M361.9,175.6h-8.8"/>
			<path class="st34" d="M361.9,173.5h-8.8"/>
			<path class="st34" d="M355,167.8v1.6"/>
			<path class="st34" d="M340.9,122.4v-4.1h1.9v2"/>
			<path class="st34" d="M371.6,190.3V123l3.6-3.7l6.6-6.8l10.7-11.1l22,21.7v67.3"/>
			<path class="st34" d="M414.5,123h-4h-28.6h-6.3h-0.3h-3.6"/>
			<path class="st34" d="M410.6,123.1l-0.1-0.1l-2.3-2.3L393,105.5l-11.1,11.1l-4,4l-2.3,2.3"/>
			<path class="st34" d="M408.1,120.7h-26.3h-4"/>
			<path class="st34" d="M397,118.7h-8.7v-6h8.7V118.7z"/>
			<path class="st34" d="M406.1,143.8h-6.3v-13.7h6.3V143.8z"/>
			<path class="st34" d="M406.1,136.9h-6.3"/>
			<path class="st34" d="M393.8,143.8h-18.6v-13.7h18.6V143.8z"/>
			<path class="st34" d="M389.6,130.1v13.7"/>
			<path class="st34" d="M379.8,130.1v13.7"/>
			<path class="st34" d="M398.6,190.3v-32.6c0,0-0.7-5.4,5.4-5.4"/>
			<path class="st34" d="M409,190.3v-32.6c0,0,0.7-5.4-5.4-5.4"/>
			<path class="st34" d="M409,187.5h-10.4"/>
			<path class="st34" d="M409,185.1h-10.4"/>
			<path class="st34" d="M409,182.6h-10.4"/>
			<path class="st34" d="M409,180.2h-10.4"/>
			<path class="st34" d="M409,177.7h-10.4"/>
			<path class="st34" d="M409,175.3h-10.4"/>
			<path class="st34" d="M409,172.8h-10.4"/>
			<path class="st34" d="M409,170.4h-10.4"/>
			<path class="st34" d="M384.2,110v-4.8h2.3v2.4"/>
			<path class="st34" d="M392.5,101.4V97"/>
			<path class="st34" d="M393.6,164.5h-6.3v-13.7h6.3V164.5z"/>
			<path class="st34" d="M393.6,157.7h-6.3"/>
			<path class="st34" d="M381.2,164.5h-6.3v-13.7h6.3V164.5z"/>
			<path class="st34" d="M381.2,157.7h-6.3"/>
			<circle class="st34" cx="404" cy="160.2" r="3.6"/>
			<path class="st34" d="M393.6,185.2h-6.3v-13.7h6.3V185.2z"/>
			<path class="st34" d="M393.6,178.4h-6.3"/>
			<path class="st34" d="M381.2,185.2h-6.3v-13.7h6.3V185.2z"/>
			<path class="st34" d="M381.2,178.4h-6.3"/>
			<path class="st34" d="M298,190.3V123l7-7.3l5.5-5.7l8.3-8.6l22,21.7"/>
			<path class="st34" d="M340.8,123h-4h-35H298"/>
			<path class="st34" d="M336.9,123.1l-0.1-0.1l-2.3-2.3l-15.2-15.2l-15.2,15.2l-2.3,2.3"/>
			<path class="st34" d="M334.5,120.7h-30.3"/>
			<path class="st34" d="M323.4,118.7h-8.7v-6h8.7V118.7z"/>
			<path class="st34" d="M320.2,143.8h-18.6v-13.7h18.6V143.8z"/>
			<path class="st34" d="M316,130.1v13.7"/>
			<path class="st34" d="M306.2,130.1v13.7"/>
			<path class="st34" d="M310.5,110v-4.8h2.3v2.4"/>
			<path class="st34" d="M320,164.5h-6.3v-13.7h6.3V164.5z"/>
			<path class="st34" d="M320,157.7h-6.3"/>
			<path class="st34" d="M307.6,164.5h-6.3v-13.7h6.3V164.5z"/>
			<path class="st34" d="M307.6,157.7h-6.3"/>
			<path class="st34" d="M320,185.2h-6.3v-13.7h6.3V185.2z"/>
			<path class="st34" d="M320,178.4h-6.3"/>
			<path class="st34" d="M307.6,185.2h-6.3v-13.7h6.3V185.2z"/>
			<path class="st34" d="M307.6,178.4h-6.3"/>
			<path class="st34" d="M251.5,190.4v-56.9l17.7-18.3l16.3,16.1l1.8,1.8l0.4,0.4v5.3v1.9v49.7"/>
			<path class="st34" d="M251.5,133.4h36.3"/>
			<path class="st34" d="M284.4,133.5l-8.1-8.1l-6.6-6.6l-0.2-0.2l-14.8,14.8"/>
			<path class="st34" d="M282.4,131.5h-25.7"/>
			<path class="st34" d="M265.6,124.7h7.4v5.1h-7.4V124.7z"/>
			<path class="st34" d="M280.7,151h-5.4v-11.6h5.4V151z"/>
			<path class="st34" d="M280.7,145.2h-5.4"/>
			<path class="st34" d="M270.3,151h-15.7v-11.6h15.7V151z"/>
			<path class="st34" d="M266.7,139.4V151"/>
			<path class="st34" d="M258.4,139.4V151"/>
			<path class="st34" d="M270.3,168.6h-15.7V157h15.7V168.6z"/>
			<path class="st34" d="M266.7,157v11.6"/>
			<path class="st34" d="M258.4,157v11.6"/>
			<path class="st34" d="M270.3,186.3h-15.7v-11.6h15.7V186.3z"/>
			<path class="st34" d="M266.7,174.7v11.6"/>
			<path class="st34" d="M258.4,174.7v11.6"/>
			<path class="st34" d="M274.3,190.4v-27.6c0,0-0.6-4.6,4.6-4.6"/>
			<path class="st34" d="M283.1,190.4v-27.6c0,0,0.6-4.6-4.6-4.6"/>
			<path class="st34" d="M283.1,188h-8.8"/>
			<path class="st34" d="M283.1,186h-8.8"/>
			<path class="st34" d="M283.1,183.9h-8.8"/>
			<path class="st34" d="M283.1,181.8h-8.8"/>
			<path class="st34" d="M283.1,179.7h-8.8"/>
			<path class="st34" d="M283.1,177.7h-8.8"/>
			<path class="st34" d="M283.1,175.6h-8.8"/>
			<path class="st34" d="M283.1,173.5h-8.8"/>
			<path class="st34" d="M276.2,167.8v1.6"/>
			<path class="st34" d="M262.1,122.4v-4.1h1.9v2"/>
			<path class="st34" d="M312.8,106.4h1.2"/>
			<path class="st34" d="M269.7,118.8l6.6,6.6"/>
			<path class="st34" d="M269.7,124.7h3.3v3.4"/>
			<path class="st34" d="M201.8,173.7v16.8"/>
			<path class="st34" d="M199.8,190.6v-16.8"/>
			<path class="st34" d="M201.8,180l5.6-4.4"/>
			<circle class="st35" cx="200.8" cy="165.4" r="8.1"/>
			<path class="st35" d="M194.9,165.4c0-3.2,2.6-5.9,5.9-5.9l0,0"/>
			<path class="st34" d="M184.3,184.1v7.2"/>
			<path class="st34" d="M186.1,191.2v-7.2"/>
			<path class="st34" d="M184.3,187.4l-2.2-1.8"/>
			<path class="st34" d="M178.9,184l5.3-6h-4.5l4.5-5h-3.3l4.5-5l4.5,5h-3.3l4.5,5h-4.5l5.3,6H178.9z"/>
			<path class="st35" d="M424.5,102.3h-4.5c-0.2-0.4-0.3-0.9-0.3-1.3c0-1.7,1.4-3.1,3.1-3.1c0.3,0,0.7,0.1,1,0.2"/>
			<path class="st35" d="M423.6,98.1c0.5-2.5,2.8-4.4,5.4-4.4c0.2,0,0.5,0,0.7,0"/>
			<path class="st35" d="M429.7,93.8c1-4.3,5.3-6.8,9.6-5.8c2.9,0.7,5.2,3,5.8,6"/>
			<path class="st35" d="M445.2,93.9c2.6-1.6,6.1-0.8,7.7,1.8c0.5,0.7,0.7,1.6,0.8,2.4"/>
			<path class="st35" d="M453.7,98.2c0.4-0.2,0.8-0.2,1.2-0.2c1.8,0,3.2,1.4,3.2,3.2c0,0,0,0,0,0c0,0.4-0.1,0.8-0.2,1.2h-5.4"/>
			<path class="st35" d="M419.9,102.3h7.8"/>
			<path class="st35" d="M445.8,102.3h3.5"/>
			<path class="st35" d="M208.7,125.5h-4.5c-0.2-0.4-0.3-0.9-0.3-1.3c0-1.7,1.4-3.1,3.1-3.1c0.3,0,0.7,0.1,1,0.2"/>
			<path class="st35" d="M207.9,121.3c0.5-2.5,2.8-4.4,5.4-4.4c0.2,0,0.5,0,0.7,0"/>
			<path class="st35" d="M214,117c1-4.3,5.3-6.8,9.6-5.8c2.9,0.7,5.2,3,5.8,6"/>
			<path class="st35" d="M229.4,117.2c2.6-1.6,6.1-0.8,7.7,1.8c0.5,0.7,0.7,1.6,0.8,2.4"/>
			<path class="st35" d="M237.9,121.4c0.4-0.2,0.8-0.2,1.2-0.2c1.8,0,3.2,1.4,3.2,3.2l0,0c0,0.4-0.1,0.8-0.2,1.2h-5.4"/>
			<path class="st35" d="M204.1,125.5h7.8"/>
			<path class="st35" d="M230.1,125.5h3.5"/>
		</g>
	</g>
</g>
<path class="st36" d="M72.7,29.5h-14c-1-1.3-0.8-3.3,0.5-4.3c0.5-0.4,1.2-0.7,1.9-0.7c0.3,0,0.6,0,0.9,0.1c0.5-2.5,2.9-4.1,5.4-3.7
	c1,0.2,2,0.7,2.6,1.5c1.4-0.5,2.9-0.3,4.1,0.6c0.7-3.4,3.7-5.9,7.2-5.9c1.4,0,2.8,0.4,3.9,1.1C86,11.8,92,7.2,98.5,8
	c4.7,0.6,8.6,3.9,10,8.4c3.2-2.4,7.7-1.7,10.1,1.5c1.2,1.7,1.7,3.8,1.2,5.9c0.3-0.1,0.6-0.1,1-0.1c0.8,0,1.7,0.3,2.3,0.8
	c0.2-2.5,2.4-4.4,4.9-4.2c2.4,0.2,4.2,2.2,4.2,4.6c0,0.2,0,0.4,0,0.6c0.2,0,0.4-0.1,0.6-0.1c1.7,0,3.1,1.4,3.1,3.1
	c0,0.3,0,0.6-0.1,0.8H120"/>
</svg>
