<?xml version="1.0" encoding="utf-8"?>
<!-- Generator: Adobe Illustrator 19.2.0, SVG Export Plug-In . SVG Version: 6.00 Build 0)  -->
<svg version="1.1" id="Слой_1" xmlns="http://www.w3.org/2000/svg" xmlns:xlink="http://www.w3.org/1999/xlink" x="0px" y="0px"
	 viewBox="0 0 49.6 49.6" style="enable-background:new 0 0 49.6 49.6;" xml:space="preserve">
<style type="text/css">
	.st0{fill:#B7E1D8;}
	.st1{fill:#2C4C61;}
</style>
<g>
	<path class="st0" d="M24.8,49.6C11.1,49.6,0,38.5,0,24.8S11.2,0,24.8,0s24.8,11.1,24.8,24.8S38.5,49.6,24.8,49.6z"/>
</g>
<g>
	<path class="st1" d="M31,11.7H19.3c-1.3,0-2.4,1.1-2.4,2.4l0,0v21.4c0,1.3,1.1,2.4,2.4,2.4l0,0H31c1.3,0,2.4-1.1,2.4-2.4l0,0V14.1
		C33.4,12.8,32.3,11.7,31,11.7L31,11.7z M19.3,12.7H31c0.8,0,1.5,0.7,1.5,1.5l0,0v1c-0.4-0.3-0.9-0.5-1.5-0.5H19.3
		c-0.5,0-1,0.2-1.5,0.5v-1C17.8,13.3,18.5,12.7,19.3,12.7C19.3,12.6,19.3,12.6,19.3,12.7L19.3,12.7z M31,37H19.3
		c-0.8,0-1.5-0.7-1.5-1.5v-3h14.6v3C32.4,36.3,31.8,37,31,37z M32.4,31.5H17.8V17c0-0.8,0.7-1.5,1.5-1.5H31c0.8,0,1.5,0.7,1.5,1.5
		l0,0L32.4,31.5L32.4,31.5z"/>
	<ellipse class="st1" cx="25.1" cy="34.5" rx="0.9" ry="0.8"/>
</g>
</svg>
