<?xml version="1.0" encoding="utf-8"?>
<!-- Generator: Adobe Illustrator 19.2.0, SVG Export Plug-In . SVG Version: 6.00 Build 0)  -->
<svg version="1.1" id="Слой_1" xmlns="http://www.w3.org/2000/svg" xmlns:xlink="http://www.w3.org/1999/xlink" x="0px" y="0px"
	 viewBox="0 0 1015.2 1139.2" style="enable-background:new 0 0 1015.2 1139.2;" xml:space="preserve">
<style type="text/css">
	.st0{clip-path:url(#SVGID_2_);}
	.st1{fill:#FFFFFF;}
	.st2{fill:#EBF6F4;}
	.st3{fill:#D0EBE5;}
	.st4{fill:#B7E1D8;}
	.st5{fill:none;stroke:#FFFFFF;stroke-linecap:round;stroke-miterlimit:10;}
	.st6{fill:none;stroke:#D0EBE5;stroke-width:2;stroke-miterlimit:10;}
	.st7{opacity:9.000000e-002;fill:#212121;}
	.st8{fill:#DE9486;}
	.st9{fill:url(#SVGID_3_);}
	.st10{fill:#E54941;}
	.st11{opacity:0.25;fill:#376277;enable-background:new    ;}
	.st12{fill:#FAA024;}
	.st13{fill:url(#SVGID_4_);}
	.st14{fill:#D88E80;}
	.st15{fill:#EFA897;}
	.st16{fill:url(#SVGID_5_);}
	.st17{fill:url(#SVGID_6_);}
	.st18{fill:url(#SVGID_7_);}
	.st19{fill:#282625;}
	.st20{fill:url(#SVGID_8_);}
	.st21{fill:url(#SVGID_9_);}
	.st22{fill:#02B491;}
	.st23{fill:#2C4C61;}
	.st24{opacity:0.4;fill:#2C4C61;enable-background:new    ;}
	.st25{fill:#5E280A;}
	.st26{fill:#7C4018;}
	.st27{fill:#D38854;}
	.st28{fill:url(#SVGID_10_);}
	.st29{fill:#E5955E;}
	.st30{fill:url(#SVGID_11_);}
	.st31{fill:url(#SVGID_12_);}
	.st32{fill:url(#SVGID_13_);}
	.st33{fill:#F4A66C;}
	.st34{fill:#415256;}
	.st35{fill:url(#SVGID_14_);}
	.st36{fill:#D66C54;}
	.st37{fill:#89471C;}
	.st38{fill:url(#SVGID_15_);}
</style>
<g>
	<defs>
		<rect id="SVGID_1_" width="940.8" height="1139.2"/>
	</defs>
	<clipPath id="SVGID_2_">
		<use xlink:href="#SVGID_1_"  style="overflow:visible;"/>
	</clipPath>
	<g class="st0">
		<path class="st1" d="M296.5,184.4c0-23.3,24.8-44.3,55.4-44.3c11.1-0.1,22,2.6,31.9,7.7c11.6-12.7,30.9-21,52.7-21
			c28.5,0,52.6,14.1,61,33.6c4.8-1.7,9.8-2.6,14.9-2.6c19.3,0,35,11.9,35,26.6H296.5z"/>
		<path class="st1" d="M230.9,220.7c0-18-35.8-34.4-79.9-34.4c-17.1,0-32.9,2.2-45.9,6c-16.7-9.8-44.5-16.3-76-16.3
			c-41,0-75.8,10.9-87.9,26c-7.1-1.3-14.3-2-21.4-2c-27.9,0-50.4,9.2-50.4,20.6L230.9,220.7z"/>
		<g>
			<path class="st2" d="M809.5,778.1c48.9-58.2,59-147,5.7-217L706.5,418.4c-34.5-45.3-44.5-104.7-26.8-158.9l55.9-170.4
				C780.4-47.2,649.4-175.6,514-128.2L344.7-69c-53.8,18.8-113.4,10-159.4-23.6v0L40.5-198.5c-115.8-84.7-278.5,0.2-275.2,143.7
				l4,179.3c1.3,57-25.5,110.9-71.7,144.3l-145.4,105c-71.5,51.6-87.5,139.9-57.4,209.8c119.3-18.9,249.2-29.3,385.1-29.3
				C280.7,554.2,629.5,644.7,809.5,778.1z"/>
			<path class="st3" d="M-454.7,1040.2c14.8-111.3,133.1-198.7,314.8-251.9c-21.6-26.6-50.9-46.6-84.7-56.8l-171.8-51.6
				c-53-15.9-90-52.5-108.9-96.4c-394.7,62.6-674.3,218.7-674.3,401.3c0,237,471.1,429.3,1053.4,430.7
				C-343.2,1307-472,1170.8-454.7,1040.2z"/>
			<path class="st3" d="M810.3,778.8c-0.3-0.2-0.6-0.4-0.8-0.6c-0.1,0.1-0.2,0.3-0.3,0.4C809.5,778.6,809.9,778.7,810.3,778.8z"/>
			<path class="st3" d="M-396.3,679.9l171.8,51.6c33.8,10.1,63.1,30.2,84.7,56.8c203.2-59.5,485.9-76.1,792.1-35.4
				c53.5,7.1,105.9,15.7,156.9,25.7c0.1-0.1,0.2-0.3,0.3-0.4c-180-133.5-528.8-224-929.6-224c-135.8,0-265.7,10.4-385.1,29.3
				C-486.3,627.4-449.2,664-396.3,679.9z"/>
			<path class="st4" d="M748.8,1376.3c0-74.7-46.7-144.9-129-206.1c-0.4-0.1-0.8-0.2-1.2-0.2c-30.8,36.4-76.9,60.7-132.2,60.6
				l-179.3-0.5c-57-0.2-110.4,27.7-142.8,74.5L62.1,1452c-81.7,118-263.2,91-307.1-45.6l-55-170.7c-6.7-20.7-17-39.6-30.3-56
				c-181.8,53.2-300,140.6-314.8,251.9c-17.4,130.7,111.5,266.8,328.5,375.3c2,0,4,0,6,0C274.4,1807,748.8,1614.2,748.8,1376.3z"/>
			<path class="st4" d="M-139.8,788.3c13.3,16.4,23.7,35.3,30.3,56l55,170.7c43.9,136.6,225.4,163.5,307.1,45.6l102.1-147.4
				c32.4-46.8,85.9-74.7,142.8-74.5l179.3,0.5c55.3,0.2,101.4-24.1,132.2-60.6c-51-10-103.3-18.6-156.9-25.7
				C346.1,712.1,63.4,728.8-139.8,788.3z"/>
		</g>
		<path class="st3" d="M700.3,663.2c-1.5,28.1,11.8,43.6,29.2,47c17.3,3.3,30.7-9.7,29.2-45c-2-36.5-29.6-76.4-29.2-74.9
			C729.9,591.2,702.3,636.6,700.3,663.2z"/>
		<path class="st5" d="M729.7,605.8c0,41.9,0,83.9,0,125.8"/>
		<path class="st5" d="M743.4,675.9c-4.4,9.4-8.9,18.4-13.7,26.9c-4.7-10-9.3-19.6-13.7-28.8"/>
		<path class="st5" d="M740.6,647.2c-3.5,8-7.2,15.8-11,23.3c-3.8-7.9-7.5-15.5-11-22.8"/>
		<path class="st5" d="M738.1,623.5c-2.8,6.6-5.6,13-8.5,19.3c-2.9-6-5.7-11.9-8.5-17.5"/>
		<path class="st1" d="M450.4,267c0-9.5,13-18.1,29.1-18.1c5.7-0.1,11.4,1,16.7,3.1c6.1-5.2,16.2-8.6,27.7-8.6
			c14.9,0,27.6,5.8,32,13.8c2.5-0.7,5.2-1,7.8-1c10.1,0,18.3,4.9,18.3,10.9H450.4z"/>
		<path class="st3" d="M249.5,546.3c-1.2,21.5,9.1,33.4,22.3,36s23.5-7.4,22.3-34.5c-1.5-27.9-22.7-58.5-22.3-57.4
			C272.1,491.1,251,525.9,249.5,546.3z"/>
		<path class="st5" d="M272,502.4c0,32.1,0,64.2,0,96.3"/>
		<path class="st5" d="M282.5,556c-3.4,7.2-6.9,14.1-10.5,20.6c-3.6-7.6-7.1-15-10.5-22"/>
		<path class="st5" d="M280.4,534c-2.7,6.1-5.5,12.1-8.4,17.8c-2.9-6-5.7-11.9-8.4-17.5"/>
		<path class="st5" d="M278.5,515.9c-2.1,5-4.3,10-6.5,14.8c-2.2-4.6-4.4-9.1-6.5-13.4"/>
		<path class="st4" d="M-33.9,567.3c-3.5,64,26.9,99.3,66.4,107.1c39.5,7.4,69.9-22,66.4-102.5c-1.7-40-19.4-85.5-35.4-117.9
			c-16.2-32.9-30.9-52.8-31-52.7c-0.1-0.6-14.7,27.9-31,61.3C-14.6,496.5-32.2,535.4-33.9,567.3L-33.9,567.3z"/>
		<g>
			<path class="st5" d="M32.9,436.8L33,723.1"/>
			<path class="st5" d="M64.1,596.2c-10,21.3-20.4,41.9-31.1,61.2c-10.8-22.7-21.2-44.7-31.2-65.5"/>
			<path class="st5" d="M57.9,530.9c-8,18.2-16.4,36-25,53C24.4,565.9,16,548.5,8,532"/>
			<path class="st5" d="M52.3,477c-6.3,14.9-12.7,29.6-19.3,43.8c-6.6-13.8-13.1-27.1-19.3-39.9"/>
			<path class="st6" d="M284.2,307.1c-8.6-8-17.2,0-17.2,0s-11.5-8.6-17.2,0"/>
			<path class="st6" d="M313.7,324.6c-8.6-8-17.2,0-17.2,0s-11.5-8.6-17.2,0"/>
			<path class="st6" d="M221.8,334.5c-8.6-8-17.2,0-17.2,0s-11.5-8.6-17.2,0"/>
		</g>
		<path class="st3" d="M310.7,574.1c-0.9,16.2,6.8,25.1,16.8,27s17.6-5.5,16.8-25.9c-1.2-21-17-43.9-16.8-43
			C327.7,532.7,311.8,558.8,310.7,574.1z"/>
		<path class="st5" d="M327.5,541.1c0,24.1,0,48.2,0,72.3"/>
		<path class="st5" d="M335.4,581.3c-2.5,5.4-5.1,10.6-7.9,15.5c-2.7-5.7-5.4-11.3-7.9-16.5"/>
		<path class="st5" d="M333.9,564.8c-2,4.6-4.1,9.1-6.3,13.4c-2.2-4.5-4.3-8.9-6.3-13.1"/>
		<path class="st5" d="M332.4,551.2c-1.6,3.8-3.2,7.5-4.9,11.1c-1.7-3.5-3.3-6.8-4.9-10"/>
		<ellipse class="st7" cx="500.6" cy="956.4" rx="236" ry="20.2"/>
		<path class="st8" d="M556.1,622c4.8-13.6,24,1.4,41,26.7c14.5,21.7,15.2,36.2,24.6,52.6C621.7,701.3,543.8,657.3,556.1,622z"/>
		
			<linearGradient id="SVGID_3_" gradientUnits="userSpaceOnUse" x1="3337.1746" y1="665.3111" x2="3337.1746" y2="853.2955" gradientTransform="matrix(-1 0 0 -1 3955.7017 1629.83)">
			<stop  offset="0" style="stop-color:#EFA897"/>
			<stop  offset="0.4" style="stop-color:#EAA292"/>
			<stop  offset="0.92" style="stop-color:#DB9183"/>
			<stop  offset="1" style="stop-color:#D88E80"/>
		</linearGradient>
		<path class="st9" d="M627.5,788.6c0,0-8.9,36.4-12.5,54.9s-21.2,86.2,12.5,96.7c23.5,7.4,26.5,16.1,23.6,19.9s-19.4,6.9-29,1.5
			s-20.7-10-27.1-10.5s-12.8-8.9-8.1-14.8s5.7-18.5,1.5-43.3s-5.9-69.9,4.4-84.7l-6.4-24.9C586.4,783.4,614.9,764.9,627.5,788.6
			L627.5,788.6z"/>
		<path class="st10" d="M589.5,931.1c4.2,14.4,23.5,21,33.5,22.9c9.2,1.8,14.3-6.2,15.9-9.4c13.1,6.2,14.6,12.5,12.3,15.6
			c-2.9,3.9-19.4,6.9-29,1.5s-20.7-10-27.1-10.5s-12.8-8.9-8.1-14.8C588.1,934.7,589,932.9,589.5,931.1L589.5,931.1z"/>
		<path class="st11" d="M642.3,946.6c0,0-9.2,12.6-25.3,3.7s-15.1-17.3-15.2-25.9s-3.2-19.2-3.2-19.2L642.3,946.6z"/>
		<path class="st12" d="M695.7,769.3c4.7,6.7-7.5,34.7-66.3,15S684.3,753.1,695.7,769.3z"/>
		
			<linearGradient id="SVGID_4_" gradientUnits="userSpaceOnUse" x1="3314.3376" y1="678.8527" x2="3314.3376" y2="872.6158" gradientTransform="matrix(-1 0 0 -1 3955.7017 1629.83)">
			<stop  offset="0" style="stop-color:#EFA897"/>
			<stop  offset="0.4" style="stop-color:#EAA292"/>
			<stop  offset="0.92" style="stop-color:#DB9183"/>
			<stop  offset="1" style="stop-color:#D88E80"/>
		</linearGradient>
		<path class="st13" d="M672.3,761.5c0,0,16.5,38.6,10.8,51.2S623.6,901,623.6,901s1,26.3,7.1,31.5s14.3,6.7,11.6,14
			s-30.8,6.9-36.2-10.8s-3.5-21.2-6.4-26.3s-1.1-20.9,10.5-19.7c0,0,24.4-76,42.7-87.4c0,0-22.2-19.9-23.4-25.1
			S648.9,747.5,672.3,761.5L672.3,761.5z"/>
		<path class="st10" d="M627.6,937c4,0.3,4.6-1.6,4.3-3.5c5.9,4.4,12.8,6.2,10.3,13c-2.7,7.4-30.8,6.9-36.2-10.8s-3.5-21.2-6.4-26.3
			s-1.1-20.9,10.5-19.7C604.1,926.4,620,936.4,627.6,937L627.6,937z"/>
		<path class="st14" d="M803,503.9c0,0,4.7,6.1,4.7,7.5s-9.9,24.9-4.7,2.9c0,0-4.2-6.9-8.7-9C794.3,505.4,796.6,501.2,803,503.9z"/>
		<path class="st15" d="M621.3,539.2l148.3-34.9l52.2-8.1c0,0,5.2,5.8-25.6,9.9L643.8,564C643.8,564,614.8,558.1,621.3,539.2z"/>
		<path class="st15" d="M775,513.1c0,2.3,13.7,5.9,16.7,6s6.7,1.4,7.8,1.3s1.3-2.7-2-3.8s-7.8-3.3-7-5.9s6.9-5.2,7.5-5.2
			S775,503.8,775,513.1L775,513.1z"/>
		
			<linearGradient id="SVGID_5_" gradientUnits="userSpaceOnUse" x1="3259.9417" y1="968.8668" x2="3505.2117" y2="968.8668" gradientTransform="matrix(-1 0 0 -1 3955.7017 1629.83)">
			<stop  offset="0" style="stop-color:#F46CE8"/>
			<stop  offset="0.14" style="stop-color:#EE6AE6"/>
			<stop  offset="0.32" style="stop-color:#DD63E0"/>
			<stop  offset="0.54" style="stop-color:#C159D7"/>
			<stop  offset="0.77" style="stop-color:#9A4ACA"/>
			<stop  offset="0.82" style="stop-color:#9147C7"/>
		</linearGradient>
		<path class="st16" d="M614.6,528.3c3.2,1.7,13.5,20.5,29,31.3s11.3,20.8,3.9,54.8s-8,35.8,0.9,56.6s47.3,98.4,47.3,98.4
			s-12-11.6-29.3,5.8s-100,63.3-141.8-65.3c0,0,37.4,1.3,44.5-48.8c2.4-16.6-2.1-30.9,0-47.6C580.4,524.2,594.5,517.5,614.6,528.3z"
			/>
		
			<linearGradient id="SVGID_6_" gradientUnits="userSpaceOnUse" x1="3259.9417" y1="968.8668" x2="3505.2117" y2="968.8668" gradientTransform="matrix(-1 0 0 -1 3955.7017 1629.83)">
			<stop  offset="0" style="stop-color:#FECD18"/>
			<stop  offset="0.18" style="stop-color:#FEC71A"/>
			<stop  offset="0.43" style="stop-color:#FCB61F"/>
			<stop  offset="0.71" style="stop-color:#FA9A27"/>
			<stop  offset="0.82" style="stop-color:#F98D2B"/>
		</linearGradient>
		<path class="st17" d="M614.6,528.3c3.2,1.7,13.5,20.5,29,31.3s11.3,20.8,3.9,54.8s-8,35.8,0.9,56.6s47.3,98.4,47.3,98.4
			s-12-11.6-29.3,5.8s-100,63.3-141.8-65.3c0,0,37.4,1.3,44.5-48.8c2.3-16.1-2.2-30.1,0-47.6C580.4,524.2,594.5,517.5,614.6,528.3z"
			/>
		
			<linearGradient id="SVGID_7_" gradientUnits="userSpaceOnUse" x1="3332.8972" y1="1115.1727" x2="3364.0571" y2="1115.1727" gradientTransform="matrix(-1 0 0 -1 3955.7017 1629.83)">
			<stop  offset="0" style="stop-color:#EFA897"/>
			<stop  offset="0.4" style="stop-color:#EAA292"/>
			<stop  offset="0.92" style="stop-color:#DB9183"/>
			<stop  offset="1" style="stop-color:#D88E80"/>
		</linearGradient>
		<path class="st18" d="M619.3,522.9c0,0-1.2,19.7,3.1,26.7s-24.7-0.8-29-15.1s0.4-53.3,1.2-57.2S619.3,522.9,619.3,522.9z"/>
		<path class="st14" d="M620.7,523.3c-10.5,1.4-21-2.9-27.3-11.4c-11.5-14.6,5.8-20.2,5.8-20.2L620.7,523.3z"/>
		<path class="st15" d="M605.3,445.7c22.2,0,42.8,17.7,37.4,49.2s-22.7,37.4-47.8,14.3C574.3,490.1,568.4,445.7,605.3,445.7z"/>
		<path class="st19" d="M625.4,465.1c0,0-20-12.7-26.2,6.5s-3.7,37.7,9.1,51.4c0,0-21.4,4.9-41.6-25.4s15.3-73.8,53.4-60.3
			s24.1,28.5,24.9,39.1s10.8,34.5,10.8,34.5s-13.9-0.5-16.3-3.4c4.4-11.7,4.7-24.6,0.8-36.5C636.1,458.3,625.4,465.1,625.4,465.1
			L625.4,465.1z"/>
		
			<linearGradient id="SVGID_8_" gradientUnits="userSpaceOnUse" x1="3358.7632" y1="1036.5769" x2="3402.3613" y2="1036.5769" gradientTransform="matrix(-1 0 0 -1 3955.7017 1629.83)">
			<stop  offset="0" style="stop-color:#EFA897"/>
			<stop  offset="0.4" style="stop-color:#EAA292"/>
			<stop  offset="0.92" style="stop-color:#DB9183"/>
			<stop  offset="1" style="stop-color:#D88E80"/>
		</linearGradient>
		<path class="st20" d="M588.4,543.8c14.2-2.7,10,20.7-7.7,49.4c-13.7,22.3-16,55.6-22.9,48.9C551.5,635.8,545.3,551.9,588.4,543.8
			L588.4,543.8z"/>
		
			<linearGradient id="SVGID_9_" gradientUnits="userSpaceOnUse" x1="3435.8916" y1="678.8" x2="3435.8916" y2="725.6133" gradientTransform="matrix(-1 0 0 -1 3955.7017 1629.83)">
			<stop  offset="0" style="stop-color:#70F46C"/>
			<stop  offset="0.22" style="stop-color:#72F06B"/>
			<stop  offset="0.45" style="stop-color:#78E46A"/>
			<stop  offset="0.67" style="stop-color:#81CF67"/>
			<stop  offset="0.9" style="stop-color:#8EB364"/>
			<stop  offset="1" style="stop-color:#95A462"/>
		</linearGradient>
		<path class="st21" d="M532.2,920.7c0.3,7.6-1.9,23.6-13.2,19.8s-14.1-24.5-9.4-39.6S531.3,898,532.2,920.7L532.2,920.7z"/>
		<path class="st22" d="M532.7,922.2c0,0-1,9.8,0.8,14c0,0-23.5-2.7-25.9-8.9c0.7-5,1.8-10,3.2-14.9L532.7,922.2z"/>
		<path class="st23" d="M468.3,641.5c0,0-19.4,4.8-5.9,54.8c28.5,105.1,43.4,228.1,43.4,228.1l31.2,0.5c0,0,8-41.9-12.4-290.8
			C524.7,634.1,485,621.5,468.3,641.5z"/>
		<path class="st24" d="M494.3,683.3c0,0,4.7,68.2-6.1,128.8L474,744.9L494.3,683.3z"/>
		<path class="st25" d="M532.5,929.5c0,0,23.3,14.8,40.2,20.4s11.3,13.2,7.5,13.2s-64.1-1.9-75.4-3.8s2.8-32,2.8-32
			S516.8,933.5,532.5,929.5z"/>
		<path class="st22" d="M462.1,922.2c0,0-1,9.8,0.8,14c0,0-23.5-2.7-25.9-8.9c0.7-5,1.8-10,3.2-14.9L462.1,922.2z"/>
		<path class="st23" d="M437.9,638.8c0,0-1.9,17.9-0.9,69.8s-0.9,213-0.9,213l28.3,2.8c0,0,36.8-226.2,30.2-289.4
			C494.5,635.1,456.8,620.9,437.9,638.8L437.9,638.8z"/>
		<path class="st26" d="M461.8,929.5c0,0,23.3,14.8,40.2,20.4s11.3,13.2,7.5,13.2s-64.1-1.9-75.4-3.8s2.8-32,2.8-32
			S446.1,933.5,461.8,929.5z"/>
		<path class="st27" d="M533.1,510c0,0,17.9,36.5,17.9,45s-16,25.1-29.2-13.2C504,490.1,526.5,496.2,533.1,510z"/>
		
			<linearGradient id="SVGID_10_" gradientUnits="userSpaceOnUse" x1="3401.7297" y1="1091.9885" x2="3423.2297" y2="1065.2585" gradientTransform="matrix(-1 0 0 -1 3955.7017 1629.83)">
			<stop  offset="0" style="stop-color:#E5955E"/>
			<stop  offset="0.32" style="stop-color:#E1925C"/>
			<stop  offset="0.62" style="stop-color:#D68A56"/>
			<stop  offset="0.68" style="stop-color:#D38854"/>
		</linearGradient>
		<path class="st28" d="M566.1,530.1c0,0-6.6,37.7-26.4,35.5s3.8-36.1,3.8-36.1L566.1,530.1z"/>
		
			<ellipse transform="matrix(0.9592 -0.2827 0.2827 0.9592 -125.7056 179.3194)" class="st29" cx="558.6" cy="525.3" rx="17" ry="9.9"/>
		
			<linearGradient id="SVGID_11_" gradientUnits="userSpaceOnUse" x1="3419.7017" y1="1136.78" x2="3461.7415" y2="1136.78" gradientTransform="matrix(-1 0 0 -1 3955.7017 1629.83)">
			<stop  offset="0.18" style="stop-color:#FFFFFF"/>
			<stop  offset="0.29" style="stop-color:#F8FBFF"/>
			<stop  offset="0.62" style="stop-color:#E7F1FF"/>
			<stop  offset="0.86" style="stop-color:#E1EDFF"/>
		</linearGradient>
		<path class="st30" d="M495,456.6c0,0,17.3,12.9,27.3,29.2c11.8,19.2,13.7,28.6,13.7,28.6s-17.3,5.9-27.3,15.1
			c-4.8-2.6-9.7-5-14.7-7.1L495,456.6z"/>
		
			<linearGradient id="SVGID_12_" gradientUnits="userSpaceOnUse" x1="3408.5913" y1="1100.6489" x2="3592.0313" y2="1042.8289" gradientTransform="matrix(-1 0 0 -1 3955.7017 1629.83)">
			<stop  offset="0.36" style="stop-color:#FFFFFF"/>
			<stop  offset="0.47" style="stop-color:#F0F6FF"/>
			<stop  offset="0.6" style="stop-color:#E5EFFF"/>
			<stop  offset="0.74" style="stop-color:#E1EDFF"/>
		</linearGradient>
		<path class="st31" d="M479.4,446.2c-21.4,0-33.1,7.5-41.7,16c-10.5,10.4,1.6,104.6,0,177.2c0,0,47.8,17.9,87.5,4.7
			c0,0,19.2-157.9-30.3-187.4L479.4,446.2z"/>
		
			<linearGradient id="SVGID_13_" gradientUnits="userSpaceOnUse" x1="3448.3098" y1="1069.9746" x2="3516.4399" y2="1151.2446" gradientTransform="matrix(-1 0 0 -1 3955.7017 1629.83)">
			<stop  offset="0" style="stop-color:#F4A66C"/>
			<stop  offset="0.19" style="stop-color:#F2A26A"/>
			<stop  offset="0.36" style="stop-color:#EC9766"/>
			<stop  offset="0.52" style="stop-color:#E3855E"/>
			<stop  offset="0.68" style="stop-color:#D66C54"/>
		</linearGradient>
		<path class="st32" d="M453.6,567.2c18,4.5,70.3-19.7,84-39.6c6.7-9.6,4.8-14.7-13.5-12.8c-26.2,15.8-56.5,11.9-82.1,22.2
			C442.1,537.1,420.5,559,453.6,567.2z"/>
		<path class="st33" d="M527.7,528.7c4.3,5.8,42.9,9,48.5-12.4c2.7-10.4-16.9,11.3-35.9,0.3C525.1,507.8,520.9,519.7,527.7,528.7
			L527.7,528.7z"/>
		<path class="st33" d="M552.3,515c0,0-8.8,3.5-6.6,8s-7.3-7.5-7.3-7.5S541.9,513.7,552.3,515z"/>
		<path class="st33" d="M525.7,513c5.7-5.5,11.5-7.5,20.4-6.2c6.1,0.8,9.2-2.3,10.6-4.4c0.5-0.7,1.4-0.9,2.2-0.4
			c0.1,0.1,0.2,0.2,0.3,0.3c2.1,2.5,4.8,7.3-1.6,10.8c-8.9,5-14,0-21.7,8.7S519.3,519.2,525.7,513L525.7,513z"/>
		<path class="st34" d="M545.4,518.8l2.5-28c0.2-2.6,2.4-4.6,5-4.6H569c2.8,0,5,2.3,5,5.1c0,0.2,0,0.3,0,0.5l-2.3,22.7
			C571.7,514.5,559.5,523.8,545.4,518.8z"/>
		
			<linearGradient id="SVGID_14_" gradientUnits="userSpaceOnUse" x1="3478.7925" y1="1167.9301" x2="3474.1924" y2="1209.1501" gradientTransform="matrix(-1 0 0 -1 3955.7017 1629.83)">
			<stop  offset="0" style="stop-color:#F4A66C"/>
			<stop  offset="1" style="stop-color:#D66C54"/>
		</linearGradient>
		<path class="st35" d="M461.5,417.3c0,0,1.9,18.9-2.8,35.8c0,0,22.6,22.6,31.1,23.6s5.7-0.9,5.7-15.1c0-8.7,1.6-17.3,4.7-25.5
			C500.2,436.2,476.6,410.7,461.5,417.3z"/>
		<path class="st36" d="M496.7,448.4c0,0-3.4,7.6-17.3,1s-16.7-27-20-47.8S496.7,448.4,496.7,448.4z"/>
		<path class="st33" d="M461.9,421.2c0,0-10-33.2,0.8-47.3s50.6-11.6,52.3,18.3s-5.8,58.1-24.9,57.3S466,438.6,461.9,421.2z"/>
		<path class="st37" d="M461.9,421.2c0,0-7.9-46.2,15.6-47.2s33.1,4.3,35.4,8.7c0,0,25.8,4.5,16.4-29.5c0,0,2.8,16-30.2,2.8
			S424.5,373.1,461.9,421.2L461.9,421.2z"/>
		<path class="st37" d="M509.2,379c0,0-51.5-14.4-42.1,31.8c0,0-13.2-9.4-9.5-23.7C461.5,372.5,491,360.4,509.2,379z"/>
		
			<linearGradient id="SVGID_15_" gradientUnits="userSpaceOnUse" x1="3405.2217" y1="1123.8051" x2="3689.3315" y2="1123.8051" gradientTransform="matrix(-1 0 0 -1 3955.7017 1629.83)">
			<stop  offset="0.36" style="stop-color:#FFFFFF"/>
			<stop  offset="0.4" style="stop-color:#F8FBFF"/>
			<stop  offset="0.52" style="stop-color:#E7F1FF"/>
			<stop  offset="0.61" style="stop-color:#E1EDFF"/>
		</linearGradient>
		<path class="st38" d="M448.5,455c0,0-19.5,8-26.1,22.2c-6.3,13.4-2.8,51.8,7.7,77.9c0.6,1.6,2.4,2.4,4,1.8c0.4-0.1,0.7-0.3,1-0.6
			l29.4-27.2c0,0-2.5-16-0.6-30.1"/>
	</g>
</g>
</svg>
