<?xml version="1.0" encoding="utf-8"?>
<!-- Generator: Adobe Illustrator 19.2.0, SVG Export Plug-In . SVG Version: 6.00 Build 0)  -->
<svg version="1.1" id="Слой_1" xmlns="http://www.w3.org/2000/svg" xmlns:xlink="http://www.w3.org/1999/xlink" x="0px" y="0px"
	 viewBox="0 0 166.4 69.2" style="enable-background:new 0 0 166.4 69.2;" xml:space="preserve">
<style type="text/css">
	.st0{fill:#FFFFFF;}
	.st1{fill:#2C4C61;}
	.st2{fill:none;stroke:#2C4C61;stroke-linejoin:round;}
</style>
<circle class="st0" cx="83.2" cy="33.9" r="64"/>
<path class="st0" d="M117.8,64.8l-2.9-11.1c-0.1-0.2-0.2-0.5-0.4-0.7L96.3,34.9L82.1,20.6L63.4,1.9c-2.5-2.5-6.6-2.5-9.2,0l-1,1
	c-2.5,2.5-2.5,6.6,0,9.2l18.7,18.7L86.2,45l18.2,18.2c0.2,0.2,0.4,0.3,0.6,0.3l11,2.9c0.1,0,0.2,0,0.3,0c0.8,0,1.4-0.6,1.4-1.4
	C117.8,65,117.8,64.9,117.8,64.8L117.8,64.8z"/>
<path class="st0" d="M61.6,69.2c-1.2,0-2.4-0.5-3.2-1.3L49,58.6c-1.8-1.8-1.8-4.7,0-6.4L98.4,2.8c1.8-1.8,4.7-1.8,6.4,0l9.3,9.3
	c1.8,1.8,1.8,4.7,0,6.4L64.8,67.9C64,68.8,62.8,69.2,61.6,69.2z"/>
<g>
	<path class="st1" d="M61.6,69.2c-1.2,0-2.4-0.5-3.2-1.3L49,58.6c-1.8-1.8-1.8-4.7,0-6.4L98.4,2.8c1.8-1.8,4.7-1.8,6.4,0l9.3,9.3
		c1.8,1.8,1.8,4.7,0,6.4L64.8,67.9C64,68.8,62.8,69.2,61.6,69.2z M101.6,3.6c-0.6,0-1.3,0.3-1.7,0.7L50.5,53.6c-1,1-1,2.5,0,3.5
		l9.3,9.3c1,1,2.5,1,3.5,0l49.3-49.3c1-1,1-2.5,0-3.5c0,0,0,0,0,0l-9.3-9.3C102.9,3.8,102.2,3.6,101.6,3.6L101.6,3.6z"/>
	<path class="st1" d="M64.9,67.4c-0.3,0-0.6-0.1-0.8-0.3L58.1,61c-0.4-0.5-0.3-1.1,0.2-1.5c0.4-0.3,0.9-0.3,1.3,0l6.1,6.1
		c0.4,0.4,0.4,1.1,0,1.5C65.4,67.3,65.2,67.4,64.9,67.4L64.9,67.4z"/>
	<path class="st1" d="M69.6,62.7c-0.3,0-0.6-0.1-0.8-0.3l-3.2-3.2c-0.4-0.5-0.3-1.1,0.2-1.5c0.4-0.3,0.9-0.3,1.3,0l3.2,3.3
		c0.4,0.4,0.4,1.1,0,1.5C70.1,62.6,69.9,62.7,69.6,62.7L69.6,62.7z"/>
	<path class="st1" d="M74.4,57.9c-0.3,0-0.6-0.1-0.8-0.3l-6.1-6.1c-0.5-0.4-0.5-1-0.2-1.5c0.4-0.5,1-0.5,1.5-0.2
		c0.1,0,0.1,0.1,0.2,0.2l6.1,6.1c0.4,0.4,0.4,1.1,0,1.5C74.9,57.8,74.6,57.9,74.4,57.9L74.4,57.9z"/>
	<path class="st1" d="M79.1,53.2c-0.3,0-0.6-0.1-0.8-0.3l-3.2-3.2c-0.5-0.4-0.5-1-0.2-1.5c0.4-0.5,1-0.5,1.5-0.2
		c0.1,0,0.1,0.1,0.2,0.2l3.2,3.2c0.4,0.4,0.4,1.1,0,1.5C79.6,53.1,79.3,53.2,79.1,53.2L79.1,53.2z"/>
	<path class="st1" d="M84,48.3c-0.3,0-0.6-0.1-0.8-0.3l-6-6.1c-0.4-0.5-0.3-1.1,0.2-1.5c0.4-0.3,0.9-0.3,1.3,0l6.1,6.1
		c0.4,0.4,0.4,1.1,0,1.5C84.6,48.2,84.3,48.3,84,48.3L84,48.3z"/>
	<path class="st1" d="M88.7,43.6c-0.3,0-0.6-0.1-0.8-0.3L84.7,40c-0.5-0.4-0.5-1-0.2-1.5c0.4-0.5,1-0.5,1.5-0.2
		c0.1,0,0.1,0.1,0.2,0.2l3.2,3.2c0.4,0.4,0.4,1.1,0,1.5C89.2,43.5,89,43.6,88.7,43.6L88.7,43.6z"/>
	<path class="st1" d="M94,38.3c-0.3,0-0.6-0.1-0.8-0.3l-6-6.1c-0.5-0.4-0.5-1-0.2-1.5c0.4-0.5,1-0.5,1.5-0.2c0.1,0,0.1,0.1,0.2,0.2
		l6.1,6.1c0.4,0.4,0.4,1.1,0,1.5C94.5,38.2,94.3,38.3,94,38.3L94,38.3z"/>
	<path class="st1" d="M112.6,19.7c-0.3,0-0.6-0.1-0.8-0.3l-6.1-6.1c-0.5-0.4-0.5-1-0.2-1.5c0.4-0.5,1-0.5,1.5-0.2
		c0.1,0,0.1,0.1,0.2,0.2l6.1,6.1c0.4,0.4,0.4,1.1,0,1.5C113.1,19.6,112.9,19.7,112.6,19.7z"/>
	<path class="st1" d="M98.7,33.6c-0.3,0-0.6-0.1-0.8-0.3L94.7,30c-0.5-0.4-0.5-1-0.2-1.5c0.4-0.5,1-0.5,1.5-0.2
		c0.1,0,0.1,0.1,0.2,0.2l3.2,3.2c0.4,0.4,0.4,1.1,0,1.5C99.2,33.5,99,33.6,98.7,33.6L98.7,33.6z"/>
	<path class="st1" d="M103.7,28.6c-0.3,0-0.6-0.1-0.8-0.3l-6.1-6.1c-0.5-0.4-0.5-1-0.2-1.5c0.4-0.5,1-0.5,1.5-0.2
		c0.1,0,0.1,0.1,0.2,0.2l6.1,6.1c0.4,0.4,0.4,1.1,0,1.5C104.2,28.5,103.9,28.6,103.7,28.6L103.7,28.6z"/>
	<path class="st1" d="M108.4,23.9c-0.3,0-0.6-0.1-0.8-0.3l-3.2-3.2c-0.3-0.5-0.2-1.1,0.3-1.5c0.4-0.2,0.8-0.2,1.2,0l3.2,3.2
		c0.4,0.4,0.4,1.1,0,1.5C108.9,23.8,108.6,23.9,108.4,23.9L108.4,23.9z"/>
	<path class="st1" d="M104.4,63.2L86.2,45c-0.4-0.5-0.3-1.1,0.2-1.5c0.4-0.3,0.9-0.3,1.3,0l16.7,16.7l7.1-7.1L94.8,36.4
		c-0.4-0.5-0.3-1.1,0.2-1.5c0.4-0.3,0.9-0.3,1.3,0l18.2,18.2L104.4,63.2z"/>
	<path class="st1" d="M72.7,31c-0.3,0-0.6-0.1-0.8-0.3L53.3,12.1c-2.5-2.5-2.5-6.6,0-9.2l1-1c2.5-2.5,6.6-2.5,9.2,0l18.6,18.7
		c0.4,0.5,0.3,1.1-0.2,1.5c-0.4,0.3-0.9,0.3-1.3,0L61.9,3.4c-1.7-1.7-4.5-1.7-6.2,0l-1,1c-1.7,1.7-1.7,4.5,0,6.2l18.7,18.6
		c0.4,0.4,0.4,1.1,0,1.5C73.2,30.9,73,31,72.7,31z"/>
	<path class="st1" d="M116.4,66.5c-0.1,0-0.2,0-0.3,0l-11-2.9c-0.7-0.2-1.2-1-1-1.7c0.1-0.2,0.2-0.5,0.4-0.6l8.2-8.2
		c0.5-0.5,1.4-0.5,2,0c0.2,0.2,0.3,0.4,0.4,0.6l2.9,11.1c0.2,0.7-0.3,1.5-1,1.7C116.7,66.6,116.6,66.6,116.4,66.5L116.4,66.5z
		 M106.8,61.9l8.6,2.3l-2.3-8.6L106.8,61.9z"/>
	<path class="st1" d="M56.9,15.3c-0.6,0-1.1-0.5-1.1-1.1c0-0.3,0.1-0.5,0.3-0.7l8.6-8.6c0.4-0.5,1-0.5,1.5-0.2s0.5,1,0.2,1.5
		c0,0.1-0.1,0.1-0.2,0.2L57.7,15C57.5,15.2,57.2,15.3,56.9,15.3z"/>
	<path class="st1" d="M62.8,21.2c-0.6,0-1.1-0.5-1.1-1.1c0-0.3,0.1-0.5,0.3-0.7l8.6-8.6c0.5-0.4,1.1-0.3,1.5,0.2
		c0.3,0.4,0.3,0.9,0,1.3l-8.6,8.6C63.3,21.1,63.1,21.2,62.8,21.2z"/>
	<path class="st1" d="M111.4,64.1l4.1-4.1l1.4,5.2c0,0,0.1,0.4-0.3,0.3L111.4,64.1z"/>
</g>
<path class="st2" d="M19.2,34.6H0"/>
<path class="st2" d="M166.4,34.6h-19.2"/>
</svg>
