<?xml version="1.0" encoding="utf-8"?>
<!-- Generator: Adobe Illustrator 19.2.0, SVG Export Plug-In . SVG Version: 6.00 Build 0)  -->
<svg version="1.1" id="Слой_1" xmlns="http://www.w3.org/2000/svg" xmlns:xlink="http://www.w3.org/1999/xlink" x="0px" y="0px"
	 viewBox="0 0 42.2 23" style="enable-background:new 0 0 42.2 23;" xml:space="preserve">
<style type="text/css">
	.st0{fill:#FECD18;}
</style>
<g>
	<path class="st0" d="M21.1,19.1L14,23l1.4-8.3L9.6,8.8l8-1.2L21.1,0l3.6,7.6l8,1.2l-5.8,5.9l1.4,8.3L21.1,19.1z"/>
	<path class="st0" d="M5.1,21.3L2,23l0.6-3.7L0,16.7l3.5-0.5l1.6-3.4l1.6,3.4l3.5,0.5l-2.6,2.6L8.3,23L5.1,21.3z"/>
	<path class="st0" d="M37.1,21.3L34,23l0.6-3.7L32,16.7l3.5-0.5l1.6-3.4l1.6,3.4l3.5,0.5l-2.6,2.6l0.6,3.7L37.1,21.3z"/>
</g>
</svg>
